<svg width="101" height="120" viewBox="0 0 101 120" fill="none" xmlns="http://www.w3.org/2000/svg">
<g opacity="0.2">
<path d="M63.9256 91.1145L41.7037 105.081C41.606 105.141 41.5 105.172 41.3911 105.172C41.2851 105.172 41.1763 105.141 41.0786 105.081C40.8861 104.959 40.7661 104.734 40.7661 104.492V76.5653C40.7661 76.3223 40.8861 76.0976 41.0786 75.9761C41.2712 75.8546 41.5111 75.8546 41.7037 75.9761L63.9256 89.9393C64.1181 90.0607 64.2381 90.2824 64.2381 90.5254C64.2381 90.7683 64.1181 90.993 63.9256 91.1145ZM72.1123 62.7206H5.68652V118.333H99.3177V62.7206H72.1123Z" fill="#A5CFE8"/>
<path d="M42.0166 103.313L62.3662 90.5253L42.0166 77.7405V103.313Z" fill="black"/>
<path d="M99.3176 118.333H5.68648V62.7205H99.3176V118.333ZM1.40896 33.4004L11.175 29.981L8.78092 45.4078L5.32095 46.6195L1.40896 33.4004ZM12.5143 29.5103L19.6993 26.9928L17.3053 42.4227L10.1175 44.9402L12.5143 29.5103ZM21.0387 26.5251L28.0368 24.0714L25.6399 39.5013L18.6446 41.952L21.0387 26.5251ZM29.3761 23.6037L36.5639 21.0862L34.167 36.5131L26.9792 39.0306L29.3761 23.6037ZM37.9032 20.6155L45.1971 18.0585L42.803 33.4884L35.5064 36.0424L37.9032 20.6155ZM46.5364 17.5909L53.7242 15.0703L51.3274 30.5002L44.1423 33.0177L46.5364 17.5909ZM55.0636 14.6027L62.0616 12.149L59.6648 27.5789L52.6667 30.0295L55.0636 14.6027ZM63.401 11.6813L70.586 9.1638L68.1891 24.5907L61.0013 27.1112L63.401 11.6813ZM71.9253 8.6931L78.6527 6.33656L76.2559 21.7665L69.5285 24.123L71.9253 8.6931ZM79.9921 5.86889L87.1771 3.34836L84.7802 18.7752L77.5952 21.2958L79.9921 5.86889ZM88.5164 2.8807L90.5338 2.17313L94.4458 15.3922L86.1195 18.3076L88.5164 2.8807ZM15.9436 47.4759L9.31945 61.3631H5.68648V47.9192L6.95328 47.4759H15.9436ZM18.2763 61.3631H10.7258L11.6326 59.4621L17.3527 47.4759H24.9005L18.2763 61.3631ZM32.7523 49.3739L27.035 61.3631H19.6826L21.4461 57.6673L26.3096 47.4759H33.6592L32.7523 49.3739ZM35.0655 47.4759H42.616L42.3482 48.0407L35.9919 61.3631H28.4413L35.0655 47.4759ZM44.0224 47.4759H51.6873L51.4166 48.0407L45.0631 61.3631H37.3982L44.0224 47.4759ZM53.0936 47.4759H60.6441L59.7401 49.3739L54.02 61.3631H46.4694L53.0936 47.4759ZM62.0505 47.4759H69.4029L62.7759 61.3631H55.4263L62.0505 47.4759ZM71.7356 61.3631H64.1822L65.9457 57.6673L70.8092 47.4759H78.3597L71.7356 61.3631ZM80.2069 61.3631H73.1419L74.0459 59.4621L79.766 47.4759H86.8339L80.2069 61.3631ZM94.8839 49.3739L89.1638 61.3631H81.616L82.5201 59.4621L88.2402 47.4759H95.7907L94.8839 49.3739ZM97.197 47.4759H99.3176V61.3631H90.5729L97.197 47.4759ZM99.9399 46.1184H10.8318L18.0475 43.5888L26.3849 40.6674L34.912 37.6792L43.5452 34.6546L52.0696 31.6664L60.407 28.745L68.9341 25.7568L77.0009 22.9326L85.5252 19.9444L95.4224 16.4764C95.7516 16.361 95.9302 15.9783 95.8242 15.62L91.5327 1.11025C91.4267 0.75191 91.0779 0.554519 90.7486 0.669917L87.7742 1.71457L79.247 4.69973L71.1803 7.52698L62.6559 10.5152L54.3185 13.4366L45.7914 16.4248L37.1582 19.4494L28.6339 22.4376L20.2965 25.359L11.7693 28.3441L0.432357 32.3162C0.103102 32.4316 -0.0754769 32.8143 0.0305547 33.1726L4.32482 47.6854C4.34714 47.7674 4.389 47.8403 4.43922 47.9041V119.013C4.43922 119.387 4.71825 119.694 5.06425 119.694H99.9399C100.286 119.694 100.565 119.387 100.565 119.013V46.7956C100.565 46.4221 100.286 46.1184 99.9399 46.1184Z" fill="#333333"/>
</g>
</svg>
