<svg width="102" height="276" viewBox="0 0 102 276" fill="none" xmlns="http://www.w3.org/2000/svg">
<path opacity="0.25" d="M96.209 72.6889H93.0146V63.8066H96.209C98.4629 63.8066 100.294 65.7993 100.294 68.2477C100.294 70.6962 98.4629 72.6889 96.209 72.6889ZM91.3088 140.507C91.3088 151.759 82.8945 160.911 72.5536 160.911H29.4349C19.0941 160.911 10.6797 151.759 10.6797 140.507V57.9942C10.6797 55.3096 12.6976 53.1222 15.1648 53.1222C17.632 53.1222 19.6385 55.3096 19.6385 57.9942V140.507C19.6385 146.386 24.0361 151.167 29.4349 151.167H72.5536C77.9563 151.167 82.3501 146.386 82.3501 140.507V57.9942C82.3501 55.3096 84.3566 53.1222 86.8352 53.1222C89.2985 53.1222 91.3088 55.3096 91.3088 57.9942V140.507ZM57.0385 170.518C55.0968 170.038 53.0712 169.777 50.9962 169.777C48.9174 169.777 46.8994 170.038 44.9501 170.518V162.767H57.0385V170.518ZM76.6199 199.514V244.94H66.9606V199.514C66.9606 190.827 59.7951 183.759 50.9962 183.759C42.2011 183.759 35.0394 190.827 35.0394 199.514V244.94H25.3686V199.514C25.3686 184.14 36.8632 171.629 50.9962 171.629C65.1292 171.629 76.6199 184.14 76.6199 199.514ZM80.6063 246.792V258.301H21.3823V246.792H80.6063ZM90.4027 260.157V273.385H11.5973V260.157H90.4027ZM65.2549 244.94H36.7451V199.514C36.7451 191.846 43.1377 185.611 50.9962 185.611C58.8585 185.611 65.2549 191.846 65.2549 199.514V244.94ZM21.3442 74.5407H26.804V142.21C26.804 142.72 27.181 143.138 27.6493 143.138H74.3393C74.8152 143.138 75.196 142.72 75.196 142.21V74.5407H80.6443V140.507C80.6443 145.363 77.0197 149.311 72.5536 149.311H29.4349C24.9803 149.311 21.3442 145.363 21.3442 140.507V74.5407ZM21.3442 63.8066H26.804V72.6889H21.3442V63.8066ZM73.4903 53.1222V141.282H28.5097V53.1222H73.4903ZM25.3686 51.2703V42.0649H76.6199V51.2703H25.3686ZM28.5097 26.5996C28.5097 13.1064 38.5955 2.12779 50.9962 2.12779C63.4007 2.12779 73.4903 13.1064 73.4903 26.5996V40.2089H28.5097V26.5996ZM80.6443 63.8066V72.6889H75.196V63.8066H80.6443ZM8.98544 72.6889H5.77962C3.52564 72.6889 1.69429 70.6962 1.69429 68.2477C1.69429 65.7993 3.52564 63.8066 5.77962 63.8066H8.98544V72.6889ZM96.209 61.9548H93.0146V57.9942C93.0146 54.2863 90.2352 51.2703 86.8352 51.2703C83.4237 51.2703 80.6443 54.2863 80.6443 57.9942V61.9548H75.196V53.1222H77.4766C77.9449 53.1222 78.3256 52.7079 78.3256 52.1983V41.1369C78.3256 40.6232 77.9449 40.2089 77.4766 40.2089H75.196V26.5996C75.196 12.0831 64.3373 0.27179 50.9962 0.27179C37.6513 0.27179 26.804 12.0831 26.804 26.5996V40.2089H24.5234C24.0551 40.2089 23.6629 40.6232 23.6629 41.1369V52.1983C23.6629 52.7079 24.0551 53.1222 24.5234 53.1222H26.804V61.9548H21.3442V57.9942C21.3442 54.2863 18.5763 51.2703 15.1648 51.2703C11.7534 51.2703 8.98544 54.2863 8.98544 57.9942V61.9548H5.77962C2.59283 61.9548 0 64.776 0 68.2477C0 71.7195 2.59283 74.5407 5.77962 74.5407H8.98544V140.507C8.98544 152.779 18.1574 162.767 29.4349 162.767H43.2558V170.999C31.9402 174.645 23.6629 186.046 23.6629 199.514V244.94H20.5371C20.0688 244.94 19.6766 245.355 19.6766 245.864V258.301H10.7483C10.2723 258.301 9.8916 258.715 9.8916 259.229V274.313C9.8916 274.827 10.2723 275.237 10.7483 275.237H91.2479C91.7162 275.237 92.097 274.827 92.097 274.313V259.229C92.097 258.715 91.7162 258.301 91.2479 258.301H82.312V245.864C82.312 245.355 81.9312 244.94 81.4629 244.94H78.3256V199.514C78.3256 186.046 70.0484 174.645 58.7442 171.003V162.767H72.5536C83.8311 162.767 93.0146 152.779 93.0146 140.507V74.5407H96.209C99.4072 74.5407 102 71.7195 102 68.2477C102 64.776 99.4072 61.9548 96.209 61.9548Z" fill="#333333"/>
</svg>
