<svg width="1000" height="701" viewBox="0 0 1000 701" fill="none" xmlns="http://www.w3.org/2000/svg">
<path d="M438.531 325.032H458.247C487.202 315.383 488.101 305.525 488.12 305.193V300.963C476.859 293.801 470.751 281.769 469.35 264.473C469.079 261.131 468.895 257.859 468.781 254.68H438.534C427.71 254.68 418.904 263.395 418.904 274.102V338.662C421.82 330.721 429.519 325.032 438.531 325.032Z" fill="#97AEBC"/>
<path d="M587.324 325.032H606.979C615.994 325.032 623.693 330.721 626.609 338.662V274.102C626.609 263.395 617.802 254.68 606.979 254.68H576.729C576.615 257.859 576.431 261.131 576.16 264.473C574.759 281.769 568.648 293.798 557.39 300.96V305.19C557.412 305.464 558.436 315.378 587.324 325.032Z" fill="#97AEBC"/>
<path d="M489.37 325.032H556.142V301.728C547.757 306.632 536.688 309.018 522.753 309.018C508.821 309.018 497.752 306.632 489.37 301.728V325.032Z" fill="#FEE3D0"/>
<path d="M417.654 345.703C417.654 344.423 417.78 343.172 418.006 341.953C395.784 345.368 378.71 364.642 378.71 387.834V478.444H431.421C426.803 476.779 422.833 473.535 420.344 469.167C418.586 466.083 417.654 462.576 417.654 459.022V345.703Z" fill="#F39333"/>
<path d="M627.855 459.022C627.855 462.576 626.923 466.083 625.166 469.167C622.677 473.535 618.706 476.779 614.091 478.444H666.8V387.834C666.8 364.642 649.726 345.368 627.507 341.953C627.73 343.172 627.855 344.423 627.855 345.703V459.022Z" fill="#F39333"/>
<path d="M590.039 205.717C590.039 197.807 584.45 191.184 577.016 189.589C575.496 199.419 574.569 207.245 574.195 210.615C574.324 211.344 575.027 215.511 575.683 222.068C583.766 221.026 590.039 214.091 590.039 205.717Z" fill="#FEE3D0"/>
<path d="M452.775 205.717C452.775 214.812 460.164 222.211 469.247 222.211C469.436 222.211 469.626 222.203 469.816 222.197C470.483 215.463 471.208 211.219 471.32 210.582C470.731 202.917 469.718 195.797 468.435 189.242C459.729 189.667 452.775 196.896 452.775 205.717Z" fill="#FEE3D0"/>
<path d="M562.593 183.187C559.552 168.266 559.027 147.584 558.938 141.101C548.123 156.153 526.652 157.824 517.692 157.824C516.04 157.824 514.464 157.769 513.013 157.66C512.34 157.612 511.626 157.584 510.889 157.584C501.528 157.584 489.954 161.619 489.836 161.658C489.649 161.725 489.443 161.697 489.281 161.585C485.299 158.889 480.118 153.496 476.873 149.925C480.888 156.444 488.578 164 488.67 164.089C488.904 164.321 488.924 164.693 488.709 164.941L488.48 165.215C486.795 167.179 482.855 171.781 483.081 180.538C483.578 199.673 474.286 209.282 472.604 210.858C472.629 211.096 472.654 211.33 472.684 211.565C474.64 227.615 483.636 239.278 499.421 246.221C500.462 246.68 501.497 247.099 502.524 247.484C503.682 244.76 505.962 241.798 510.454 240.192C511.994 239.641 513.593 239.362 515.209 239.362C518.961 239.362 521.788 240.843 522.754 241.424C523.722 240.843 526.548 239.362 530.301 239.362C531.917 239.362 533.518 239.641 535.059 240.192C539.548 241.798 541.828 244.76 542.983 247.484C544.01 247.099 545.048 246.68 546.089 246.221C561.804 239.306 570.786 227.716 572.797 211.775C571.871 210.193 565.958 199.701 562.593 183.187Z" fill="#FEE3D0"/>
<path d="M546.842 252.74C554.108 252.74 559.948 254.4 560.194 254.47C560.476 254.551 560.66 254.814 560.646 255.104C560.638 255.244 559.742 269.366 543.182 270.338C542.71 270.366 542.23 270.38 541.761 270.38C538.134 270.38 534.972 269.539 532.313 268.346C530.564 271.565 526.942 273.789 522.754 273.789C518.568 273.789 514.947 271.565 513.197 268.346C510.538 269.539 507.379 270.38 503.749 270.38C503.28 270.38 502.803 270.366 502.329 270.338C485.766 269.366 484.87 255.244 484.864 255.104C484.85 254.814 485.035 254.551 485.314 254.47C485.559 254.4 491.402 252.74 498.668 252.74C499.578 252.74 500.476 252.768 501.352 252.821C501.377 251.961 501.517 250.413 502.086 248.655C501.051 248.264 500.004 247.842 498.955 247.381C488.375 242.734 475.397 233.36 471.931 214.868C470.818 222.985 468.795 242.136 470.595 264.373C472.992 293.977 489.566 307.766 522.754 307.766C555.944 307.766 572.516 293.977 574.916 264.373C576.715 242.128 574.692 222.982 573.579 214.868C570.111 233.36 557.133 242.734 546.555 247.381C545.506 247.842 544.459 248.264 543.424 248.655C543.993 250.413 544.133 251.961 544.158 252.821C545.034 252.768 545.933 252.74 546.842 252.74Z" fill="#CD9361"/>
<path d="M472.464 209.207C475.067 206.374 482.261 197.016 481.834 180.572C481.602 171.58 485.534 166.738 487.384 164.572C485.244 162.435 475.807 152.736 473.683 146.234C473.591 145.949 473.711 145.639 473.971 145.494C474.233 145.348 474.56 145.407 474.752 145.636C474.844 145.742 483.734 156.193 489.725 160.376C491.633 159.736 502.169 156.335 510.889 156.335C511.656 156.335 512.402 156.363 513.102 156.413C514.505 156.517 516.093 156.573 517.692 156.573C526.769 156.573 548.971 154.835 559.013 138.746C559.128 138.558 559.331 138.452 559.544 138.452C559.599 138.452 559.658 138.461 559.714 138.477C559.982 138.553 560.166 138.799 560.166 139.078C560.166 139.335 560.21 165.246 563.815 182.939C566.589 196.552 571.104 206.005 573.046 209.654C574.513 196.795 581.637 140.389 595.817 120.167L582.711 122.464C582.452 122.509 582.19 122.386 582.061 122.157C581.933 121.925 581.961 121.637 582.134 121.438C582.204 121.357 588.847 113.405 584.865 97.8415L580.142 103.201C579.941 103.433 579.6 103.48 579.341 103.315C579.084 103.15 578.981 102.821 579.104 102.538C579.126 102.483 581.414 97.0507 579.606 88.3188C576.168 90.0205 560.953 96.816 537.581 96.816C534.682 96.816 531.666 96.7461 528.474 96.6763C525.109 96.6008 521.632 96.5198 518.108 96.5198C493.098 96.5198 469.082 100.714 462.79 131.137C462.751 131.316 462.639 131.467 462.48 131.556C462.218 131.701 456.264 134.987 449.321 136.555C452.575 141.272 468.934 166.892 472.464 209.207Z" fill="#CD9361"/>
<path d="M522.754 272.54C526.448 272.54 529.643 270.606 531.189 267.804C526.733 265.524 523.861 262.352 522.754 260.978C521.649 262.352 518.777 265.524 514.321 267.804C515.867 270.606 519.062 272.54 522.754 272.54Z" fill="#FEE3D0"/>
<path d="M534.638 241.371C533.234 240.865 531.775 240.611 530.302 240.611C526.136 240.611 523.139 242.656 523.111 242.678C522.896 242.827 522.612 242.827 522.4 242.678C522.369 242.656 519.375 240.611 515.209 240.611C513.736 240.611 512.276 240.865 510.873 241.371C502.095 244.509 502.577 253.081 502.602 253.447C502.614 253.626 502.547 253.805 502.418 253.933C502.29 254.062 502.106 254.126 501.933 254.112C500.875 254.031 499.779 253.989 498.668 253.989C492.772 253.989 487.719 255.143 486.159 255.54C486.455 257.985 488.523 268.276 502.401 269.089C502.851 269.117 503.306 269.128 503.749 269.128C515.588 269.128 522.176 259.692 522.24 259.597C522.358 259.427 522.547 259.326 522.754 259.326C522.96 259.326 523.156 259.427 523.27 259.597C523.337 259.692 529.922 269.128 541.761 269.128C542.205 269.128 542.66 269.117 543.109 269.089C556.985 268.276 559.056 257.985 559.354 255.54C557.789 255.143 552.738 253.989 546.843 253.989C545.732 253.989 544.633 254.031 543.581 254.112C543.408 254.129 543.221 254.062 543.092 253.933C542.961 253.805 542.897 253.626 542.908 253.447C542.933 253.081 543.416 244.509 534.638 241.371Z" fill="#DC9260"/>
<path d="M557.39 308.616V325.032H583.443C565.911 318.703 559.633 312.371 557.39 308.616Z" fill="#F39333"/>
<path d="M462.067 325.032H488.12V308.616C485.877 312.371 479.599 318.703 462.067 325.032Z" fill="#F39333"/>
<path d="M522.754 414.999C512.323 414.999 503.835 406.499 503.835 396.052C503.835 385.604 512.323 377.104 522.754 377.104C533.189 377.104 541.675 385.604 541.675 396.052C541.675 406.499 533.189 414.999 522.754 414.999ZM626.606 345.703C626.606 334.993 617.802 326.284 606.979 326.284H438.531C427.71 326.284 418.904 334.993 418.904 345.703V459.022C418.904 462.238 419.716 465.415 421.254 468.234H624.256C625.794 465.415 626.606 462.238 626.606 459.022V345.703Z" fill="black"/>
<path d="M438.532 478.444H606.979C613.678 478.444 619.917 475.038 623.514 469.483H421.999C425.593 475.038 431.832 478.444 438.532 478.444Z" fill="#F3F4F4"/>
<path d="M540.428 396.052C540.428 386.294 532.5 378.356 522.754 378.356C513.013 378.356 505.083 386.294 505.083 396.052C505.083 405.809 513.013 413.747 522.754 413.747C532.5 413.747 540.428 405.809 540.428 396.052Z" fill="#F3F4F4"/>
<path d="M666.8 478.444H614.091C618.706 476.779 622.677 473.535 625.166 469.167C626.924 466.083 627.856 462.576 627.856 459.022V345.703C627.856 344.423 627.73 343.172 627.507 341.953C649.726 345.368 666.8 364.642 666.8 387.834V478.444ZM438.531 478.444C431.832 478.444 425.593 475.038 421.999 469.483H623.514C619.917 475.038 613.678 478.444 606.979 478.444H438.531ZM378.71 478.444V387.834C378.71 364.642 395.784 345.368 418.006 341.953C417.78 343.172 417.654 344.423 417.654 345.703V459.022C417.654 462.576 418.586 466.083 420.344 469.167C422.833 473.535 426.804 476.779 431.422 478.444H378.71ZM418.904 274.102C418.904 263.395 427.711 254.68 438.534 254.68H468.781C468.895 257.859 469.079 261.131 469.35 264.473C470.751 281.769 476.859 293.801 488.12 300.963V305.193C488.101 305.525 487.202 315.383 458.248 325.032H438.531C429.519 325.032 421.82 330.721 418.904 338.662V274.102ZM469.247 222.211C460.164 222.211 452.776 214.812 452.776 205.717C452.776 196.896 459.729 189.667 468.435 189.242C469.718 195.797 470.731 202.917 471.32 210.582C471.208 211.219 470.483 215.463 469.816 222.197C469.626 222.203 469.437 222.211 469.247 222.211ZM449.321 136.555C456.264 134.987 462.218 131.701 462.48 131.556C462.639 131.467 462.751 131.316 462.79 131.137C469.082 100.714 493.098 96.5198 518.108 96.5198C521.632 96.5198 525.109 96.6008 528.474 96.6763C531.666 96.7461 534.682 96.816 537.581 96.816C560.953 96.816 576.168 90.0205 579.606 88.3188C581.414 97.0507 579.126 102.483 579.104 102.538C578.981 102.821 579.084 103.15 579.341 103.315C579.6 103.48 579.941 103.433 580.142 103.201L584.866 97.8415C588.847 113.405 582.204 121.357 582.134 121.438C581.961 121.637 581.933 121.925 582.061 122.157C582.19 122.386 582.452 122.509 582.711 122.464L595.817 120.167C581.637 140.389 574.514 196.795 573.046 209.654C571.104 206.005 566.589 196.552 563.816 182.939C560.21 165.246 560.166 139.335 560.166 139.078C560.166 138.799 559.982 138.553 559.714 138.477C559.658 138.461 559.599 138.452 559.544 138.452C559.332 138.452 559.128 138.558 559.013 138.746C548.971 154.835 526.769 156.573 517.692 156.573C516.093 156.573 514.505 156.517 513.102 156.413C512.402 156.363 511.657 156.335 510.889 156.335C502.17 156.335 491.633 159.736 489.725 160.375C483.734 156.193 474.844 145.742 474.752 145.636C474.56 145.407 474.233 145.348 473.971 145.494C473.711 145.639 473.591 145.949 473.683 146.234C475.807 152.736 485.244 162.435 487.384 164.572C485.534 166.738 481.602 171.58 481.834 180.572C482.261 197.016 475.067 206.373 472.464 209.207C468.934 166.892 452.575 141.272 449.321 136.555ZM590.039 205.717C590.039 214.091 583.766 221.026 575.683 222.068C575.027 215.511 574.324 211.344 574.195 210.615C574.569 207.245 575.496 199.419 577.016 189.589C584.45 191.184 590.039 197.807 590.039 205.717ZM488.12 325.032H462.067C479.599 318.703 485.877 312.371 488.12 308.616V325.032ZM557.39 308.616C559.633 312.371 565.911 318.703 583.443 325.032H557.39V308.616ZM522.754 309.018C536.688 309.018 547.757 306.632 556.142 301.728V325.032H489.37V301.728C497.753 306.632 508.822 309.018 522.754 309.018ZM471.931 214.868C475.397 233.36 488.374 242.734 498.955 247.381C500.004 247.842 501.051 248.264 502.086 248.655C501.517 250.413 501.377 251.961 501.352 252.821C500.476 252.768 499.577 252.74 498.668 252.74C491.402 252.74 485.559 254.4 485.313 254.47C485.034 254.551 484.85 254.814 484.864 255.104C484.87 255.244 485.765 269.366 502.329 270.338C502.803 270.366 503.28 270.38 503.749 270.38C507.379 270.38 510.538 269.539 513.197 268.346C514.946 271.565 518.568 273.789 522.754 273.789C526.942 273.789 530.564 271.565 532.313 268.346C534.972 269.539 538.134 270.38 541.761 270.38C542.23 270.38 542.71 270.366 543.181 270.338C559.742 269.366 560.637 255.244 560.646 255.104C560.66 254.814 560.476 254.551 560.194 254.47C559.948 254.4 554.108 252.74 546.842 252.74C545.933 252.74 545.034 252.768 544.158 252.821C544.133 251.961 543.993 250.413 543.424 248.655C544.459 248.264 545.506 247.842 546.555 247.381C557.133 242.734 570.11 233.36 573.579 214.868C574.692 222.982 576.715 242.128 574.915 264.373C572.516 293.977 555.944 307.766 522.754 307.766C489.566 307.766 472.991 293.977 470.595 264.373C468.795 242.136 470.818 222.985 471.931 214.868ZM531.189 267.804C529.643 270.606 526.448 272.54 522.754 272.54C519.062 272.54 515.867 270.606 514.321 267.804C518.777 265.524 521.649 262.352 522.754 260.978C523.861 262.352 526.733 265.524 531.189 267.804ZM523.27 259.597C523.155 259.427 522.96 259.326 522.754 259.326C522.547 259.326 522.357 259.427 522.24 259.597C522.176 259.692 515.588 269.128 503.749 269.128C503.305 269.128 502.85 269.117 502.401 269.089C488.522 268.276 486.455 257.985 486.159 255.54C487.719 255.143 492.772 253.989 498.668 253.989C499.778 253.989 500.875 254.031 501.932 254.112C502.105 254.126 502.29 254.062 502.418 253.933C502.546 253.805 502.613 253.626 502.602 253.447C502.577 253.081 502.094 244.509 510.872 241.371C512.276 240.865 513.735 240.611 515.209 240.611C519.375 240.611 522.369 242.656 522.399 242.678C522.611 242.827 522.896 242.827 523.111 242.678C523.139 242.656 526.135 240.611 530.301 240.611C531.775 240.611 533.234 240.865 534.637 241.371C543.416 244.509 542.933 253.081 542.908 253.447C542.897 253.626 542.961 253.805 543.092 253.933C543.22 254.062 543.407 254.129 543.58 254.112C544.632 254.031 545.732 253.989 546.842 253.989C552.738 253.989 557.789 255.143 559.354 255.54C559.055 257.985 556.985 268.276 543.109 269.089C542.66 269.117 542.205 269.128 541.761 269.128C529.922 269.128 523.337 259.692 523.27 259.597ZM483.081 180.538C482.855 171.781 486.795 167.179 488.48 165.215L488.709 164.941C488.924 164.693 488.905 164.321 488.67 164.089C488.578 164 480.888 156.444 476.873 149.925C480.118 153.496 485.299 158.889 489.281 161.585C489.443 161.697 489.65 161.725 489.836 161.658C489.954 161.619 501.528 157.584 510.889 157.584C511.626 157.584 512.34 157.612 513.013 157.66C514.464 157.769 516.04 157.824 517.692 157.824C526.652 157.824 548.123 156.153 558.938 141.101C559.027 147.584 559.552 168.266 562.593 183.187C565.959 199.701 571.871 210.193 572.798 211.775C570.786 227.716 561.804 239.306 546.089 246.221C545.048 246.68 544.01 247.099 542.983 247.484C541.828 244.76 539.548 241.798 535.059 240.192C533.519 239.641 531.917 239.362 530.301 239.362C526.548 239.362 523.722 240.843 522.754 241.424C521.788 240.843 518.962 239.362 515.209 239.362C513.593 239.362 511.994 239.641 510.454 240.192C505.962 241.798 503.682 244.76 502.524 247.484C501.497 247.099 500.462 246.68 499.421 246.221C483.636 239.278 474.641 227.615 472.685 211.565C472.654 211.33 472.629 211.096 472.604 210.858C474.286 209.282 483.578 199.673 483.081 180.538ZM624.256 468.234H421.254C419.716 465.415 418.904 462.238 418.904 459.022V345.703C418.904 334.993 427.711 326.283 438.531 326.283H606.979C617.802 326.283 626.606 334.993 626.606 345.703V459.022C626.606 462.238 625.794 465.415 624.256 468.234ZM576.16 264.473C576.43 261.131 576.615 257.859 576.729 254.68H606.979C617.802 254.68 626.608 263.395 626.608 274.102V338.662C623.693 330.721 615.994 325.032 606.979 325.032H587.324C558.436 315.378 557.412 305.464 557.39 305.19V300.96C568.648 293.798 574.759 281.769 576.16 264.473ZM627.856 340.746V274.102C627.856 262.704 618.491 253.43 606.979 253.43H576.771C577.136 241.474 576.525 230.951 575.803 223.315C584.522 222.208 591.286 214.739 591.286 205.717C591.286 197.183 585.239 190.041 577.212 188.351C580.797 165.534 587.48 132.844 597.737 119.667C597.896 119.463 597.913 119.181 597.779 118.96C597.648 118.739 597.394 118.622 597.14 118.667L583.992 120.969C585.853 117.985 589.564 109.837 585.767 96.3857C585.705 96.1649 585.527 95.9973 585.304 95.947C585.08 95.8967 584.849 95.9693 584.698 96.1426L581.046 100.286C581.595 97.6235 582.006 93.1277 580.649 87.2515C580.608 87.0615 580.476 86.8994 580.295 86.8212C580.116 86.7429 579.91 86.7513 579.74 86.8463C579.584 86.9329 563.835 95.5642 537.581 95.5642C534.696 95.5642 531.688 95.4971 528.502 95.4245C525.131 95.349 521.643 95.2708 518.108 95.2708C507 95.2708 494.198 95.9554 483.447 101.046C471.808 106.554 464.668 116.222 461.627 130.598C460.365 131.266 454.492 134.258 448.141 135.53C447.932 135.571 447.759 135.72 447.681 135.921C447.605 136.122 447.636 136.348 447.767 136.519C447.932 136.737 461.47 154.977 468.189 188.004C458.909 188.555 451.526 196.286 451.526 205.717C451.526 215.499 459.475 223.46 469.247 223.46C469.398 223.46 469.545 223.454 469.693 223.449C468.976 231.074 468.376 241.547 468.739 253.43H438.534C427.021 253.43 417.657 262.704 417.657 274.102V340.746C394.916 344.32 377.463 364.075 377.463 387.834V479.07C377.463 479.414 377.742 479.693 378.088 479.693H667.425C667.768 479.693 668.05 479.414 668.05 479.07V387.834C668.05 364.075 650.597 344.32 627.856 340.746Z" fill="#F39333"/>
<path d="M522.753 413.747C513.012 413.747 505.082 405.809 505.082 396.052C505.082 386.294 513.012 378.356 522.753 378.356C532.5 378.356 540.427 386.294 540.427 396.052C540.427 405.809 532.5 413.747 522.753 413.747ZM522.753 377.104C512.323 377.104 503.835 385.604 503.835 396.052C503.835 406.499 512.323 414.999 522.753 414.999C533.189 414.999 541.674 406.499 541.674 396.052C541.674 385.604 533.189 377.104 522.753 377.104Z" fill="#333333"/>
<path d="M832.278 460.508H788.875V468.27H832.278V460.508Z" fill="#97AEBC"/>
<path d="M810.577 408.564C812.098 408.564 813.583 408.74 815.006 409.064V403.836H806.146V409.064C807.575 408.74 809.054 408.564 810.577 408.564Z" fill="#97AEBC"/>
<path d="M781.704 469.522V478.444H839.458V469.522H781.704Z" fill="#97AEBC"/>
<path d="M792.849 337.091H788.848V343.082H792.849V337.091Z" fill="#97AEBC"/>
<path d="M843.713 343.082C845.365 343.082 846.707 341.738 846.707 340.087C846.707 338.435 845.365 337.091 843.713 337.091H841.372V343.082H843.713Z" fill="#97AEBC"/>
<path d="M828.313 343.082H832.306V337.091H828.313V343.082Z" fill="#97AEBC"/>
<path d="M774.446 340.087C774.446 341.738 775.788 343.082 777.44 343.082H779.79V337.091H777.44C775.788 337.091 774.446 338.435 774.446 340.087Z" fill="#97AEBC"/>
<path d="M810.578 409.813C800.221 409.813 791.797 418.252 791.797 428.621V459.259H798.884V428.621C798.884 422.761 804.133 417.995 810.578 417.995C817.027 417.995 822.278 422.761 822.278 428.621V459.259H829.357V428.621C829.357 418.252 820.936 409.813 810.578 409.813Z" fill="#97AEBC"/>
<path d="M840.121 333.171C840.121 331.361 838.648 329.885 836.843 329.885C835.026 329.885 833.556 331.361 833.556 333.171V388.823C833.556 392.788 830.336 396.013 826.376 396.013H794.776C790.82 396.013 787.597 392.788 787.597 388.823V333.171C787.597 331.361 786.126 329.885 784.318 329.885C782.51 329.885 781.031 331.361 781.031 333.171V388.823C781.031 396.412 787.198 402.585 794.776 402.585H826.376C833.955 402.585 840.121 396.412 840.121 388.823V333.171Z" fill="#97AEBC"/>
<path d="M810.578 295.492C801.49 295.492 794.099 302.896 794.099 311.997V321.176H827.063V311.997C827.063 302.896 819.669 295.492 810.578 295.492Z" fill="#F3F4F4"/>
<path d="M794.099 389.346H827.063V329.885H794.099V389.346Z" fill="#F3F4F4"/>
<path d="M829.357 328.636V322.428H791.797V328.636H829.357Z" fill="black"/>
<path d="M843.713 343.082H841.372V337.091H843.713C845.365 337.091 846.707 338.435 846.707 340.087C846.707 341.738 845.365 343.082 843.713 343.082ZM840.122 388.823C840.122 396.412 833.955 402.585 826.377 402.585H794.777C787.198 402.585 781.032 396.412 781.032 388.823V333.171C781.032 331.361 782.511 329.885 784.319 329.885C786.127 329.885 787.597 331.361 787.597 333.171V388.823C787.597 392.788 790.82 396.013 794.777 396.013H826.377C830.336 396.013 833.556 392.788 833.556 388.823V333.171C833.556 331.361 835.027 329.885 836.843 329.885C838.649 329.885 840.122 331.361 840.122 333.171V388.823ZM815.007 409.064C813.583 408.74 812.099 408.564 810.578 408.564C809.055 408.564 807.576 408.74 806.147 409.064V403.836H815.007V409.064ZM829.357 428.621V459.259H822.278V428.621C822.278 422.761 817.027 417.995 810.578 417.995C804.133 417.995 798.884 422.761 798.884 428.621V459.259H791.797V428.621C791.797 418.252 800.221 409.813 810.578 409.813C820.936 409.813 829.357 418.252 829.357 428.621ZM832.278 460.508V468.27H788.875V460.508H832.278ZM839.458 469.522V478.444H781.704V469.522H839.458ZM821.028 459.259H800.134V428.621C800.134 423.449 804.819 419.244 810.578 419.244C816.34 419.244 821.028 423.449 821.028 428.621V459.259ZM788.847 344.331H792.849V389.972C792.849 390.315 793.125 390.597 793.468 390.597H827.686C828.034 390.597 828.313 390.315 828.313 389.972V344.331H832.306V388.823C832.306 392.098 829.65 394.761 826.377 394.761H794.777C791.512 394.761 788.847 392.098 788.847 388.823V344.331ZM788.847 337.091H792.849V343.082H788.847V337.091ZM827.063 329.885V389.346H794.099V329.885H827.063ZM791.797 328.636V322.428H829.357V328.636H791.797ZM794.099 311.997C794.099 302.896 801.49 295.491 810.578 295.491C819.669 295.491 827.063 302.896 827.063 311.997V321.176H794.099V311.997ZM832.306 337.091V343.082H828.313V337.091H832.306ZM779.79 343.082H777.441C775.789 343.082 774.447 341.738 774.447 340.087C774.447 338.435 775.789 337.091 777.441 337.091H779.79V343.082ZM843.713 335.842H841.372V333.171C841.372 330.67 839.335 328.636 836.843 328.636C834.343 328.636 832.306 330.67 832.306 333.171V335.842H828.313V329.885H829.985C830.328 329.885 830.607 329.606 830.607 329.262V321.802C830.607 321.455 830.328 321.176 829.985 321.176H828.313V311.997C828.313 302.206 820.355 294.24 810.578 294.24C800.798 294.24 792.849 302.206 792.849 311.997V321.176H791.177C790.834 321.176 790.547 321.455 790.547 321.802V329.262C790.547 329.606 790.834 329.885 791.177 329.885H792.849V335.842H788.847V333.171C788.847 330.67 786.819 328.636 784.319 328.636C781.819 328.636 779.79 330.67 779.79 333.171V335.842H777.441C775.105 335.842 773.205 337.745 773.205 340.087C773.205 342.428 775.105 344.331 777.441 344.331H779.79V388.823C779.79 397.1 786.512 403.836 794.777 403.836H804.906V409.388C796.613 411.847 790.547 419.537 790.547 428.621V459.259H788.256C787.913 459.259 787.625 459.539 787.625 459.882V468.27H781.082C780.733 468.27 780.454 468.55 780.454 468.896V479.07C780.454 479.416 780.733 479.693 781.082 479.693H840.077C840.421 479.693 840.7 479.416 840.7 479.07V468.896C840.7 468.55 840.421 468.27 840.077 468.27H833.528V459.882C833.528 459.539 833.249 459.259 832.906 459.259H830.607V428.621C830.607 419.537 824.541 411.847 816.257 409.391V403.836H826.377C834.642 403.836 841.372 397.1 841.372 388.823V344.331H843.713C846.057 344.331 847.957 342.428 847.957 340.087C847.957 337.745 846.057 335.842 843.713 335.842Z" fill="#333333"/>
<path d="M211.351 390.48C211.29 390.385 211.245 390.276 211.245 390.156C211.245 387.303 211.652 384.515 212.422 381.849C213.463 375.763 215.227 368.685 218.089 360.546C225.263 340.143 218.145 322.481 214.805 315.911C213.628 316.174 212.42 316.319 211.189 316.347C213.801 321.229 222.032 339.126 214.895 359.42C204.213 389.784 208.181 406.217 209.805 410.85H213.438C213.421 410.811 213.413 410.772 213.393 410.732C213.346 410.635 210.338 404.144 211.351 390.48Z" fill="#8DC640"/>
<path d="M249.617 425.335V412.102H174.126V425.335H249.617Z" fill="#8C6339"/>
<path d="M185.778 478.444H237.965V467.625H232.424C232.424 467.625 232.424 467.625 232.421 467.625H191.323C191.32 467.625 191.32 467.625 191.32 467.625H185.778V478.444Z" fill="#8C6339"/>
<path d="M239.837 426.584H183.905L191.833 466.373H231.91L239.837 426.584Z" fill="#A67C52"/>
<path d="M212.501 389.522C227.641 389.189 239.896 376.923 240.228 361.761C232.881 361.921 226.006 364.857 220.799 370.071C215.593 375.285 212.66 382.173 212.501 389.522Z" fill="#8DC640"/>
<path d="M186.635 325.174C186.791 332.523 189.724 339.408 194.93 344.625C200.14 349.839 207.015 352.778 214.356 352.935C214.022 337.776 201.772 325.507 186.635 325.174Z" fill="#8DC640"/>
<path d="M189.924 384.503C190.253 393.495 197.497 400.749 206.476 401.079C206.32 396.717 204.551 392.637 201.453 389.536C198.356 386.431 194.279 384.66 189.924 384.503Z" fill="#8DC640"/>
<path d="M233.966 327.795C237.066 324.694 238.835 320.614 238.991 316.252C230.012 316.582 222.769 323.839 222.439 332.828C226.798 332.671 230.869 330.9 233.966 327.795Z" fill="#8DC640"/>
<path d="M210.134 315.096C209.978 310.731 208.209 306.654 205.112 303.553C202.012 300.448 197.938 298.677 193.582 298.52C193.911 307.512 201.155 314.766 210.134 315.096Z" fill="#8DC640"/>
<path d="M211.406 315.096C215.762 314.936 219.836 313.165 222.933 310.063C226.03 306.959 227.799 302.882 227.958 298.52C218.979 298.847 211.733 306.104 211.406 315.096Z" fill="#8DC640"/>
<path d="M249.617 425.335H174.125V412.102H249.617V425.335ZM231.909 466.373H191.832L183.905 426.584H239.837L231.909 466.373ZM237.964 467.625V478.444H185.777V467.625H191.319C191.319 467.625 191.319 467.625 191.322 467.625H232.42C232.423 467.625 232.423 467.625 232.423 467.625H237.964ZM214.894 359.42C222.032 339.126 213.8 321.229 211.189 316.347C212.419 316.319 213.627 316.174 214.805 315.911C218.145 322.481 225.263 340.143 218.089 360.546C215.226 368.685 213.463 375.763 212.422 381.849C211.652 384.514 211.244 387.303 211.244 390.156C211.244 390.276 211.289 390.385 211.351 390.48C210.338 404.144 213.346 410.635 213.393 410.732C213.413 410.771 213.421 410.811 213.438 410.85H209.805C208.181 406.217 204.213 389.784 214.894 359.42ZM193.582 298.52C197.938 298.677 202.011 300.448 205.111 303.553C208.209 306.654 209.978 310.731 210.134 315.096C201.155 314.766 193.911 307.512 193.582 298.52ZM227.958 298.52C227.799 302.882 226.03 306.959 222.933 310.063C219.836 313.165 215.762 314.936 211.406 315.096C211.733 306.104 218.979 298.847 227.958 298.52ZM220.798 370.071C226.005 364.857 232.88 361.921 240.227 361.761C239.895 376.923 227.64 389.189 212.5 389.522C212.659 382.173 215.592 375.285 220.798 370.071ZM189.924 384.503C194.279 384.66 198.356 386.431 201.453 389.536C204.551 392.637 206.32 396.717 206.476 401.078C197.497 400.749 190.253 393.495 189.924 384.503ZM194.93 344.625C189.723 339.408 186.79 332.523 186.634 325.174C201.771 325.507 214.021 337.776 214.356 352.935C207.014 352.778 200.139 349.839 194.93 344.625ZM238.991 316.252C238.835 320.614 237.066 324.694 233.966 327.795C230.869 330.899 226.798 332.671 222.439 332.827C222.768 323.839 230.012 316.582 238.991 316.252ZM250.242 410.85H214.738C214.691 410.626 214.621 410.403 214.518 410.188C214.47 410.093 211.649 403.856 212.584 390.762C228.583 390.379 241.48 377.238 241.48 361.13C241.48 360.783 241.196 360.504 240.852 360.504C232.942 360.504 225.506 363.589 219.914 369.188C217.908 371.2 216.231 373.449 214.897 375.872C215.935 371.368 217.35 366.405 219.267 360.959C222.743 351.074 222.93 341.816 221.806 334.09C226.733 334.09 231.365 332.168 234.85 328.678C238.333 325.191 240.252 320.55 240.252 315.615C240.252 315.272 239.971 314.992 239.627 314.992C230.207 314.992 222.422 322.098 221.32 331.238C219.959 324.252 217.634 318.775 216.041 315.593C218.949 314.732 221.61 313.154 223.815 310.946C227.3 307.456 229.22 302.818 229.217 297.883C229.217 297.537 228.938 297.257 228.595 297.257C220.07 297.257 212.88 303.078 210.773 310.96C209.95 307.853 208.323 305.003 205.993 302.67C202.508 299.18 197.876 297.257 192.946 297.257C192.603 297.257 192.321 297.537 192.321 297.883C192.321 307.727 200.053 315.797 209.754 316.328C211.535 319.496 219.046 334.278 215.572 352.135C214.824 336.449 201.847 323.917 186.001 323.917C185.657 323.917 185.378 324.196 185.378 324.54C185.376 332.461 188.456 339.908 194.045 345.508C199.637 351.107 207.073 354.192 214.981 354.192H214.986C215.037 354.192 215.084 354.175 215.134 354.161C214.752 355.757 214.289 357.372 213.714 359.003C208.273 374.475 206.61 386.409 206.509 395.071C205.594 392.693 204.191 390.508 202.335 388.65C198.853 385.163 194.218 383.24 189.288 383.24C188.944 383.24 188.663 383.52 188.663 383.866C188.663 393.95 196.777 402.168 206.808 402.33C207.215 406.34 207.941 409.156 208.493 410.85H173.5C173.157 410.85 172.878 411.132 172.878 411.476V425.961C172.878 426.307 173.157 426.587 173.5 426.587H182.633L190.56 466.373H185.152C184.809 466.373 184.527 466.655 184.527 466.999V479.07C184.527 479.416 184.809 479.693 185.152 479.693H238.589C238.933 479.693 239.214 479.416 239.214 479.07V466.999C239.214 466.655 238.933 466.373 238.589 466.373H233.182L241.109 426.587H250.242C250.585 426.587 250.864 426.307 250.864 425.961V411.476C250.864 411.132 250.585 410.85 250.242 410.85Z" fill="#333333"/>
<path d="M332.685 473.311H363.568C363.693 472.814 363.757 472.311 363.757 471.805V431.904H335.176C340.048 436.981 343.053 443.872 343.053 451.452C343.053 460.257 339.007 468.128 332.685 473.311Z" fill="#A5CFE8"/>
<path d="M265.94 471.805C265.94 472.308 266.005 472.814 266.13 473.311H297.016C290.69 468.128 286.647 460.257 286.647 451.452C286.647 443.872 289.652 436.981 294.524 431.904H265.94V471.805Z" fill="#A5CFE8"/>
<path d="M357.543 478.028C359.758 478.028 361.779 476.84 362.884 474.979H330.43C328.56 476.226 326.537 477.254 324.389 478.028H357.543Z" fill="#E67E73"/>
<path d="M272.154 478.028H305.309C303.163 477.254 301.14 476.226 299.27 474.979H266.816C267.919 476.84 269.939 478.028 272.154 478.028Z" fill="#E67E73"/>
<path d="M285.952 420.97H272.154C268.728 420.97 265.94 423.762 265.94 427.193V430.239H296.056V420.97H285.952Z" fill="#E67E73"/>
<path d="M333.642 420.97V430.239H363.757V427.193C363.757 423.762 360.97 420.97 357.543 420.97H333.642Z" fill="#E67E73"/>
<path d="M297.722 420.97V429.037C302.474 425.388 308.411 423.211 314.849 423.211C321.289 423.211 327.226 425.388 331.978 429.037V420.97H297.722Z" fill="#E6E6E6"/>
<path d="M314.849 429.97C326.68 429.97 336.304 439.608 336.304 451.452C336.304 463.3 326.68 472.937 314.849 472.937C303.021 472.937 293.394 463.3 293.394 451.452C293.394 439.608 303.021 429.97 314.849 429.97ZM314.849 478.028C329.484 478.028 341.388 466.105 341.388 451.452C341.388 436.799 329.484 424.877 314.849 424.877C300.217 424.877 288.311 436.799 288.311 451.452C288.311 466.105 300.217 478.028 314.849 478.028Z" fill="#E67E73"/>
<path d="M314.848 465.426C307.156 465.426 300.894 459.159 300.894 451.452C300.894 443.746 307.156 437.478 314.848 437.478C322.544 437.478 328.805 443.746 328.805 451.452C328.805 459.159 322.544 465.426 314.848 465.426ZM314.848 431.636C303.938 431.636 295.06 440.527 295.06 451.452C295.06 462.38 303.938 471.269 314.848 471.269C325.761 471.269 334.637 462.38 334.637 451.452C334.637 440.527 325.761 431.636 314.848 431.636Z" fill="#A5CFE8"/>
<path d="M314.849 439.147C308.071 439.147 302.561 444.668 302.561 451.452C302.561 458.239 308.071 463.761 314.849 463.761C321.627 463.761 327.14 458.239 327.14 451.452C327.14 444.668 321.627 439.147 314.849 439.147Z" fill="black"/>
<path d="M353.134 414.407H340.302V419.302H353.134V414.407Z" fill="#CCCCCC"/>
<path d="M288.396 416.854C288.396 415.505 287.3 414.407 285.952 414.407H275.508C274.16 414.407 273.063 415.505 273.063 416.854C273.063 418.204 274.16 419.302 275.508 419.302H285.952C287.3 419.302 288.396 418.204 288.396 416.854Z" fill="#CCCCCC"/>
<path d="M306.14 407.896L302.858 412.767H326.841L323.56 407.896H306.14Z" fill="#CCCCCC"/>
<path d="M331.245 419.302L327.963 414.432H301.735L298.453 419.302H331.245Z" fill="#CCCCCC"/>
<path d="M332.684 473.311C339.007 468.128 343.053 460.257 343.053 451.452C343.053 443.872 340.048 436.981 335.176 431.904H363.757V471.805C363.757 472.311 363.693 472.814 363.567 473.311H332.684ZM357.543 478.028H324.389C326.537 477.254 328.56 476.226 330.43 474.979H362.883C361.779 476.84 359.758 478.028 357.543 478.028ZM288.31 451.452C288.31 436.799 300.216 424.877 314.849 424.877C329.484 424.877 341.387 436.799 341.387 451.452C341.387 466.105 329.484 478.028 314.849 478.028C300.216 478.028 288.31 466.105 288.31 451.452ZM272.154 478.028C269.939 478.028 267.919 476.84 266.816 474.979H299.27C301.14 476.226 303.163 477.254 305.308 478.028H272.154ZM266.13 473.311C266.004 472.814 265.94 472.308 265.94 471.805V431.904H294.524C289.652 436.981 286.647 443.872 286.647 451.452C286.647 460.257 290.69 468.128 297.016 473.311H266.13ZM265.94 427.193C265.94 423.762 268.728 420.97 272.154 420.97H296.056V430.239H265.94V427.193ZM275.508 414.407H285.952C287.3 414.407 288.397 415.505 288.397 416.855C288.397 418.204 287.3 419.302 285.952 419.302H275.508C274.16 419.302 273.064 418.204 273.064 416.855C273.064 415.505 274.16 414.407 275.508 414.407ZM331.978 420.97V429.037C327.226 425.388 321.289 423.211 314.849 423.211C308.411 423.211 302.474 425.388 297.722 429.037V420.97H331.978ZM301.734 414.432H327.963L331.244 419.302H298.453L301.734 414.432ZM306.14 407.896H323.56L326.841 412.767H302.859L306.14 407.896ZM353.966 420.97H357.543C360.969 420.97 363.757 423.762 363.757 427.193V430.239H333.641V420.97H353.966ZM340.302 414.407H353.134V419.302H340.302V414.407ZM357.543 419.302H354.8V413.574C354.8 413.11 354.429 412.739 353.966 412.739H339.47C339.01 412.739 338.639 413.11 338.639 413.574V419.302H333.253L329.096 413.135L324.693 406.6C324.536 406.368 324.28 406.231 324.003 406.231H305.696C305.42 406.231 305.163 406.368 305.007 406.6L300.601 413.135L296.447 419.302H289.248C289.755 418.618 290.06 417.771 290.06 416.855C290.06 414.586 288.218 412.739 285.952 412.739H275.508C273.242 412.739 271.398 414.586 271.398 416.855C271.398 417.771 271.705 418.618 272.216 419.302H272.154C267.81 419.302 264.274 422.842 264.274 427.193V471.805C264.274 472.685 264.428 473.568 264.729 474.42C265.837 477.575 268.82 479.693 272.154 479.693H357.543C360.877 479.693 363.863 477.575 364.971 474.42C365.269 473.571 365.423 472.688 365.423 471.805V427.193C365.423 422.842 361.887 419.302 357.543 419.302Z" fill="#333333"/>
<path d="M295.059 451.452C295.059 440.527 303.938 431.636 314.848 431.636C325.761 431.636 334.637 440.527 334.637 451.452C334.637 462.38 325.761 471.269 314.848 471.269C303.938 471.269 295.059 462.38 295.059 451.452ZM336.303 451.452C336.303 439.608 326.679 429.97 314.848 429.97C303.02 429.97 293.394 439.608 293.394 451.452C293.394 463.3 303.02 472.937 314.848 472.937C326.679 472.937 336.303 463.3 336.303 451.452Z" fill="#333333"/>
<path d="M302.56 451.452C302.56 444.668 308.071 439.147 314.849 439.147C321.626 439.147 327.14 444.668 327.14 451.452C327.14 458.239 321.626 463.761 314.849 463.761C308.071 463.761 302.56 458.239 302.56 451.452ZM328.806 451.452C328.806 443.746 322.544 437.478 314.849 437.478C307.156 437.478 300.895 443.746 300.895 451.452C300.895 459.159 307.156 465.426 314.849 465.426C322.544 465.426 328.806 459.159 328.806 451.452Z" fill="#333333"/>
<path d="M681.825 446.501C681.825 459.561 692.434 470.184 705.473 470.184H709.045V461.849H705.473C697.021 461.849 690.146 454.965 690.146 446.501C690.146 438.037 697.021 431.152 705.473 431.152H709.045V422.817H705.473C692.434 422.817 681.825 433.441 681.825 446.501Z" fill="#F39333"/>
<path d="M710.708 472.981C710.708 475.764 712.968 478.028 715.744 478.028H763.659C766.439 478.028 768.704 475.764 768.704 472.981V414.974H710.708V472.981Z" fill="#F39333"/>
<path d="M768.705 472.981C768.705 475.764 766.439 478.028 763.66 478.028H715.745C712.968 478.028 710.708 475.764 710.708 472.981V414.974H768.705V472.981ZM709.045 431.152H705.474C697.022 431.152 690.147 438.037 690.147 446.501C690.147 454.964 697.022 461.849 705.474 461.849H709.045V470.184H705.474C692.435 470.184 681.826 459.561 681.826 446.501C681.826 433.441 692.435 422.817 705.474 422.817H709.045V431.152ZM709.045 460.181H705.474C697.94 460.181 691.812 454.045 691.812 446.501C691.812 438.957 697.94 432.818 705.474 432.818H709.045V460.181ZM769.533 413.309H709.877C709.416 413.309 709.045 413.68 709.045 414.141V421.152H705.474C691.517 421.152 680.16 432.521 680.16 446.501C680.16 460.477 691.517 471.85 705.474 471.85H709.045V472.981C709.045 476.684 712.05 479.693 715.745 479.693H763.66C767.362 479.693 770.368 476.684 770.368 472.981V414.141C770.368 413.68 769.997 413.309 769.533 413.309Z" fill="#333333"/>
<path d="M873.53 479.693H126.512C126.052 479.693 125.678 479.321 125.678 478.86C125.678 478.402 126.052 478.028 126.512 478.028H873.53C873.993 478.028 874.364 478.402 874.364 478.86C874.364 479.321 873.993 479.693 873.53 479.693Z" fill="#333333"/>
<path d="M946.312 491.806H199.288C198.828 491.806 198.454 491.431 198.454 490.97C198.454 490.512 198.828 490.138 199.288 490.138H946.312C946.77 490.138 947.141 490.512 947.141 490.97C947.141 491.431 946.77 491.806 946.312 491.806Z" fill="#333333"/>
<path d="M822.836 504.293H75.812C75.3516 504.293 74.9805 503.922 74.9805 503.461C74.9805 503 75.3516 502.625 75.812 502.625H822.836C823.29 502.625 823.661 503 823.661 503.461C823.661 503.922 823.29 504.293 822.836 504.293Z" fill="#333333"/>
<path d="M334.581 218.025C334.581 217.802 334.699 217.595 334.891 217.483C335.086 217.371 335.324 217.371 335.516 217.483L357.738 230.334C357.931 230.445 358.051 230.649 358.051 230.873C358.051 231.097 357.931 231.303 357.738 231.415L335.516 244.263C335.421 244.319 335.312 244.347 335.206 244.347C335.098 244.347 334.989 244.319 334.891 244.263C334.699 244.151 334.581 243.944 334.581 243.721V218.025ZM388.434 251.804V208.519H295.021V251.804H388.434Z" fill="#FBF164"/>
<path d="M335.829 219.109V242.639L356.179 230.873L335.829 219.109Z" fill="black"/>
<path d="M301.184 259.947H319.67V257.611C319.67 257.267 319.949 256.988 320.295 256.988H327.608C327.954 256.988 328.233 257.267 328.233 257.611V259.947H382.27C382.616 259.947 382.895 260.226 382.895 260.572C382.895 260.916 382.616 261.196 382.27 261.196H328.233V263.691C328.233 264.034 327.954 264.314 327.608 264.314H320.295C319.949 264.314 319.67 264.034 319.67 263.691V261.196H301.184C300.841 261.196 300.562 260.916 300.562 260.572C300.562 260.226 300.841 259.947 301.184 259.947ZM295.021 268.092H388.434V253.053H295.021V268.092Z" fill="#E67E73"/>
<path d="M320.92 263.065H326.986V258.237H320.92V263.065Z" fill="black"/>
<path d="M295.021 207.27H388.434V197.614H295.021V207.27Z" fill="black"/>
<path d="M335.829 242.639V219.109L356.179 230.873L335.829 242.639ZM357.739 230.334L335.517 217.483C335.324 217.371 335.087 217.371 334.892 217.483C334.699 217.595 334.582 217.802 334.582 218.025V243.721C334.582 243.944 334.699 244.151 334.892 244.263C334.989 244.319 335.098 244.347 335.207 244.347C335.313 244.347 335.422 244.319 335.517 244.263L357.739 231.415C357.931 231.303 358.051 231.097 358.051 230.873C358.051 230.649 357.931 230.445 357.739 230.334Z" fill="#333333"/>
<path d="M320.92 258.237H326.987V263.065H320.92V258.237ZM301.185 261.196H319.67V263.691C319.67 264.034 319.949 264.314 320.295 264.314H327.609C327.955 264.314 328.234 264.034 328.234 263.691V261.196H382.271C382.617 261.196 382.896 260.916 382.896 260.572C382.896 260.226 382.617 259.947 382.271 259.947H328.234V257.611C328.234 257.267 327.955 256.988 327.609 256.988H320.295C319.949 256.988 319.67 257.267 319.67 257.611V259.947H301.185C300.842 259.947 300.562 260.226 300.562 260.572C300.562 260.916 300.842 261.196 301.185 261.196Z" fill="#333333"/>
<path d="M295.021 251.804V208.519H388.434V251.804H295.021ZM388.434 268.092H295.021V253.053H388.434V268.092ZM295.021 197.614H388.434V207.27H295.021V197.614ZM389.059 196.362H294.398C294.052 196.362 293.773 196.641 293.773 196.988V268.718C293.773 269.061 294.052 269.341 294.398 269.341H389.059C389.405 269.341 389.684 269.061 389.684 268.718V196.988C389.684 196.641 389.405 196.362 389.059 196.362Z" fill="#333333"/>
<path d="M284.233 215.491L262.011 228.341C261.914 228.397 261.808 228.425 261.699 228.425C261.593 228.425 261.484 228.397 261.386 228.341C261.194 228.23 261.074 228.023 261.074 227.799V202.104C261.074 201.88 261.194 201.674 261.386 201.562C261.579 201.45 261.819 201.45 262.011 201.562L284.233 214.41C284.426 214.521 284.546 214.725 284.546 214.949C284.546 215.172 284.426 215.379 284.233 215.491ZM292.42 189.365H225.994V240.535H319.625V189.365H292.42Z" fill="#A5CFE8"/>
<path d="M262.324 226.715L282.674 214.949L262.324 203.185V226.715Z" fill="black"/>
<path d="M253.06 177.085L253.967 175.338H246.617L241.754 184.716L239.99 188.116H247.343L253.06 177.085Z" fill="black"/>
<path d="M255.373 175.338L248.749 188.116H256.3L262.656 175.858L262.924 175.338H255.373Z" fill="#E67E73"/>
<path d="M264.33 175.338L257.706 188.116H265.371L271.724 175.858L271.995 175.338H264.33Z" fill="black"/>
<path d="M245.208 175.338H237.66L231.94 186.367L231.033 188.116H238.584L245.208 175.338Z" fill="#E67E73"/>
<path d="M225.994 188.116H229.627L236.251 175.338H227.261L225.994 175.746V188.116Z" fill="black"/>
<path d="M302.828 186.367L301.924 188.116H309.472L315.192 177.085L316.099 175.338H308.548L302.828 186.367Z" fill="#E67E73"/>
<path d="M273.402 175.338L266.777 188.116H274.328L280.048 177.085L280.952 175.338H273.402Z" fill="#E67E73"/>
<path d="M307.142 175.338H300.074L294.354 186.367L293.45 188.116H300.515L307.142 175.338Z" fill="black"/>
<path d="M310.881 188.116H319.626V175.338H317.505L310.881 188.116Z" fill="black"/>
<path d="M298.668 175.338H291.117L286.254 184.716L284.49 188.116H292.044L298.668 175.338Z" fill="#E67E73"/>
<path d="M283.084 188.116L289.711 175.338H282.359L275.734 188.116H283.084Z" fill="black"/>
<path d="M248.344 153.804L241.346 156.061L238.952 170.256L245.947 168.001L248.344 153.804Z" fill="#E67E73"/>
<path d="M249.684 153.373L247.287 167.568L254.475 165.251L256.872 151.057L249.684 153.373Z" fill="black"/>
<path d="M258.211 150.624L255.814 164.818L263.111 162.468L265.505 148.271L258.211 150.624Z" fill="#E67E73"/>
<path d="M237.614 170.689L240.008 156.492L232.823 158.808L230.426 173.005L237.614 170.689Z" fill="black"/>
<path d="M225.629 174.55L229.089 173.436L231.483 159.241L221.717 162.387L225.629 174.55Z" fill="#E67E73"/>
<path d="M307.485 134.736L300.3 137.055L297.903 151.25L305.088 148.93L307.485 134.736Z" fill="black"/>
<path d="M266.844 147.841L264.45 162.035L271.635 159.719L274.032 145.522L266.844 147.841Z" fill="black"/>
<path d="M296.563 151.683L298.96 137.485L292.233 139.654L289.836 153.851L296.563 151.683Z" fill="#E67E73"/>
<path d="M308.825 134.306L306.428 148.5L314.754 145.818L310.842 133.655L308.825 134.306Z" fill="#E67E73"/>
<path d="M288.497 154.281L290.894 140.087L283.709 142.403L281.31 156.601L288.497 154.281Z" fill="black"/>
<path d="M275.371 145.091L272.975 159.286L279.973 157.031L282.37 142.834L275.371 145.091Z" fill="#E67E73"/>
<path d="M262.324 226.715V203.185L282.674 214.949L262.324 226.715ZM284.234 214.41L262.012 201.562C261.819 201.45 261.579 201.45 261.387 201.562C261.194 201.674 261.074 201.88 261.074 202.104V227.799C261.074 228.023 261.194 228.23 261.387 228.341C261.484 228.397 261.593 228.425 261.699 228.425C261.808 228.425 261.914 228.397 262.012 228.341L284.234 215.491C284.426 215.379 284.546 215.172 284.546 214.949C284.546 214.725 284.426 214.521 284.234 214.41Z" fill="#333333"/>
<path d="M319.625 240.535H225.994V189.365H319.625V240.535ZM221.717 162.387L231.483 159.241L229.089 173.436L225.629 174.55L221.717 162.387ZM232.822 158.808L240.007 156.492L237.613 170.689L230.425 173.005L232.822 158.808ZM241.346 156.061L248.344 153.804L245.948 168.001L238.952 170.256L241.346 156.061ZM249.684 153.373L256.872 151.057L254.475 165.251L247.287 167.568L249.684 153.373ZM258.211 150.624L265.505 148.271L263.111 162.468L255.814 164.818L258.211 150.624ZM266.844 147.841L274.032 145.522L271.635 159.719L264.45 162.035L266.844 147.841ZM275.371 145.091L282.369 142.834L279.972 157.031L272.974 159.286L275.371 145.091ZM283.709 142.403L290.894 140.087L288.497 154.281L281.309 156.601L283.709 142.403ZM292.233 139.654L298.96 137.485L296.563 151.683L289.836 153.851L292.233 139.654ZM300.3 137.055L307.485 134.736L305.088 148.93L297.903 151.25L300.3 137.055ZM308.824 134.306L310.841 133.655L314.753 145.818L306.427 148.5L308.824 134.306ZM236.251 175.338L229.627 188.116H225.994V175.746L227.261 175.338H236.251ZM238.584 188.116H231.033L231.94 186.367L237.66 175.338H245.208L238.584 188.116ZM253.06 177.085L247.343 188.116H239.99L241.754 184.716L246.617 175.338H253.967L253.06 177.085ZM255.373 175.338H262.924L262.656 175.858L256.299 188.116H248.749L255.373 175.338ZM264.33 175.338H271.995L271.724 175.858L265.371 188.116H257.706L264.33 175.338ZM273.401 175.338H280.952L280.048 177.085L274.328 188.116H266.777L273.401 175.338ZM282.358 175.338H289.711L283.084 188.116H275.734L282.358 175.338ZM292.043 188.116H284.49L286.253 184.716L291.117 175.338H298.667L292.043 188.116ZM300.515 188.116H293.45L294.354 186.367L300.074 175.338H307.141L300.515 188.116ZM315.191 177.085L309.471 188.116H301.924L302.828 186.367L308.548 175.338H316.098L315.191 177.085ZM317.505 175.338H319.625V188.116H310.88L317.505 175.338ZM320.247 174.089H231.139L238.355 171.762L246.693 169.074L255.22 166.324L263.853 163.541L272.377 160.792L280.715 158.104L289.242 155.354L297.308 152.756L305.833 150.006L315.73 146.815C316.059 146.709 316.238 146.357 316.132 146.027L311.84 132.677C311.734 132.347 311.386 132.165 311.056 132.272L308.082 133.233L299.555 135.979L291.488 138.581L282.964 141.33L274.626 144.018L266.099 146.768L257.466 149.551L248.941 152.3L240.604 154.988L232.077 157.735L220.74 161.39C220.411 161.496 220.232 161.848 220.338 162.178L224.632 175.531C224.655 175.607 224.697 175.674 224.747 175.732V241.161C224.747 241.505 225.026 241.787 225.372 241.787H320.247C320.593 241.787 320.873 241.505 320.873 241.161V174.713C320.873 174.369 320.593 174.089 320.247 174.089Z" fill="#333333"/>
<path d="M659.715 177.887C649.092 177.887 640.454 169.236 640.454 158.601C640.454 147.966 649.092 139.313 659.715 139.313C670.335 139.313 678.974 147.966 678.974 158.601C678.974 169.236 670.335 177.887 659.715 177.887ZM689.948 158.347L685.726 158.33C685.389 158.33 685.115 158.062 685.104 157.727C685.006 154.896 684.448 152.127 683.444 149.501C683.321 149.185 683.474 148.83 683.784 148.699L687.537 147.125C687.626 147.086 687.668 146.983 687.632 146.894C686.089 143.214 683.871 139.919 681.033 137.1C680.949 137.016 680.871 137.016 680.787 137.1L677.919 139.989C677.682 140.229 677.297 140.238 677.048 140.006C674.981 138.069 672.617 136.502 670.025 135.351C669.727 135.217 669.582 134.876 669.69 134.566L671.303 130.084C671.334 129.994 671.292 129.896 671.203 129.86C667.561 128.36 663.669 126.895 659.659 126.895C659.562 126.895 659.483 126.974 659.483 127.069L659.472 129.315L659.5 132.269C659.503 132.607 659.238 132.886 658.9 132.897C656.222 133.001 653.442 133.602 650.649 134.691C650.334 134.814 649.98 134.666 649.849 134.353L648.28 130.656C648.233 130.542 648.124 130.531 648.052 130.561C644.419 132.082 641.126 134.314 638.26 137.195C638.194 137.262 638.196 137.374 638.263 137.444L641.148 140.333C641.386 140.57 641.394 140.956 641.165 141.202C639.22 143.281 637.647 145.661 636.491 148.274C636.358 148.573 636.017 148.721 635.707 148.609L631.148 146.961C631.078 146.935 630.969 146.947 630.928 147.058C629.488 150.557 627.855 154.522 627.855 158.654C627.855 158.702 627.875 158.746 627.906 158.777C627.95 158.822 628.017 158.83 628.056 158.83L633.121 158.8C633.124 158.8 633.124 158.8 633.126 158.8C633.458 158.8 633.735 159.065 633.749 159.398C633.855 161.971 634.468 164.595 635.674 167.657C635.797 167.97 635.649 168.325 635.339 168.459L631.72 170.021C631.634 170.057 631.592 170.164 631.628 170.25C633.126 173.849 635.364 177.152 638.277 180.061C638.361 180.144 638.442 180.144 638.523 180.061L641.433 177.169C641.556 177.048 641.715 176.987 641.874 176.987C642.027 176.987 642.181 177.043 642.301 177.157C644.357 179.088 646.712 180.656 649.307 181.818C649.458 181.888 649.578 182.014 649.637 182.17C649.695 182.327 649.69 182.503 649.617 182.654L648.066 185.99C648.046 186.035 648.043 186.085 648.063 186.13C648.077 186.171 648.113 186.208 648.158 186.227C650.998 187.404 654.213 188.002 658.272 188.108C658.312 188.108 658.345 188.111 658.381 188.119L659.715 188.125C659.81 188.125 659.891 188.046 659.891 187.949C659.891 187.851 659.81 187.773 659.715 187.773L659.221 187.77C658.881 187.767 658.605 187.488 658.605 187.147V184.637C658.605 184.299 658.87 184.026 659.207 184.012C662.369 183.9 665.396 183.327 667.955 182.366C668.251 182.254 668.585 182.383 668.731 182.668L670.678 186.51C670.731 186.613 670.834 186.621 670.904 186.593C674.766 184.984 678.229 182.712 680.913 180.019C680.983 179.949 680.983 179.84 680.916 179.773L678.125 176.892C677.891 176.652 677.888 176.272 678.117 176.029C680.076 173.95 681.708 171.524 682.838 169.018C682.981 168.708 683.338 168.568 683.647 168.699L687.451 170.289C687.49 170.306 687.543 170.306 687.585 170.289C687.626 170.27 687.663 170.236 687.679 170.194C689.301 166.271 690.124 162.345 690.124 158.523C690.124 158.428 690.043 158.347 689.948 158.347Z" fill="#8DCC93"/>
<path d="M687.68 170.194C687.663 170.236 687.627 170.27 687.585 170.289C687.543 170.306 687.49 170.306 687.451 170.289L683.648 168.699C683.338 168.568 682.981 168.708 682.838 169.018C681.708 171.524 680.076 173.95 678.117 176.029C677.888 176.272 677.891 176.652 678.126 176.892L680.916 179.773C680.983 179.84 680.983 179.949 680.913 180.019C678.229 182.712 674.766 184.984 670.904 186.593C670.835 186.621 670.731 186.613 670.678 186.51L668.731 182.668C668.586 182.383 668.251 182.254 667.955 182.366C665.396 183.327 662.369 183.9 659.207 184.012C658.87 184.026 658.605 184.299 658.605 184.637V187.147C658.605 187.488 658.881 187.767 659.221 187.77L659.715 187.773C659.81 187.773 659.891 187.851 659.891 187.949C659.891 188.046 659.81 188.125 659.715 188.125L658.381 188.119C658.345 188.111 658.312 188.108 658.273 188.108C654.213 188.002 650.998 187.404 648.158 186.227C648.113 186.208 648.077 186.171 648.063 186.13C648.043 186.085 648.046 186.035 648.066 185.99L649.617 182.654C649.69 182.503 649.695 182.327 649.637 182.17C649.578 182.014 649.458 181.888 649.307 181.818C646.712 180.656 644.357 179.088 642.301 177.157C642.181 177.043 642.028 176.987 641.874 176.987C641.715 176.987 641.556 177.048 641.433 177.169L638.523 180.061C638.442 180.144 638.361 180.144 638.277 180.061C635.364 177.152 633.127 173.849 631.628 170.25C631.592 170.164 631.634 170.057 631.72 170.021L635.339 168.459C635.649 168.325 635.797 167.97 635.674 167.657C634.469 164.595 633.855 161.971 633.749 159.398C633.735 159.065 633.459 158.8 633.127 158.8C633.124 158.8 633.124 158.8 633.121 158.8L628.057 158.83C628.017 158.83 627.951 158.822 627.906 158.777C627.875 158.746 627.856 158.702 627.856 158.654C627.856 154.522 629.488 150.557 630.928 147.058C630.97 146.947 631.078 146.935 631.148 146.961L635.708 148.609C636.017 148.721 636.358 148.573 636.492 148.274C637.647 145.661 639.221 143.281 641.165 141.202C641.394 140.956 641.386 140.57 641.149 140.333L638.263 137.444C638.196 137.374 638.194 137.262 638.261 137.195C641.126 134.314 644.419 132.081 648.052 130.561C648.124 130.531 648.233 130.542 648.281 130.656L649.849 134.353C649.98 134.666 650.334 134.814 650.65 134.691C653.443 133.602 656.222 133.001 658.9 132.897C659.238 132.886 659.503 132.607 659.5 132.269L659.472 129.315L659.484 127.069C659.484 126.974 659.562 126.895 659.659 126.895C663.669 126.895 667.562 128.36 671.203 129.86C671.292 129.896 671.334 129.994 671.303 130.084L669.691 134.566C669.582 134.876 669.727 135.217 670.025 135.351C672.618 136.502 674.981 138.069 677.049 140.006C677.297 140.238 677.682 140.229 677.919 139.989L680.788 137.1C680.871 137.016 680.949 137.016 681.033 137.1C683.871 139.919 686.089 143.214 687.632 146.894C687.668 146.983 687.627 147.086 687.537 147.125L683.784 148.699C683.475 148.83 683.321 149.185 683.444 149.5C684.448 152.127 685.006 154.896 685.104 157.727C685.115 158.062 685.389 158.33 685.726 158.33L689.948 158.347C690.043 158.347 690.124 158.428 690.124 158.523C690.124 162.345 689.301 166.271 687.68 170.194ZM689.954 157.098L686.324 157.084C686.181 154.524 685.673 152.021 684.82 149.621L688.02 148.277C688.743 147.972 689.086 147.137 688.782 146.41C687.18 142.579 684.867 139.148 681.912 136.211C681.371 135.675 680.43 135.68 679.9 136.22L677.456 138.684C675.536 136.969 673.39 135.546 671.061 134.448L672.478 130.506C672.735 129.787 672.386 128.997 671.68 128.706C667.922 127.155 663.898 125.644 659.659 125.644C658.878 125.644 658.239 126.281 658.236 127.063L658.225 129.318L658.248 131.682C655.8 131.836 653.286 132.383 650.761 133.311L649.43 130.167C649.207 129.639 648.691 129.298 648.119 129.298C647.929 129.298 647.745 129.335 647.569 129.41C643.788 130.992 640.359 133.314 637.376 136.312C636.826 136.868 636.826 137.773 637.382 138.327L639.846 140.794C638.121 142.725 636.693 144.887 635.59 147.237L631.572 145.784C630.869 145.53 630.054 145.896 629.773 146.583C628.288 150.188 626.608 154.276 626.608 158.654C626.608 159.031 626.762 159.403 627.027 159.666C627.284 159.92 627.635 160.068 628.04 160.079L632.535 160.054C632.7 162.412 633.266 164.824 634.296 167.548L631.226 168.873C630.518 169.18 630.18 170.015 630.479 170.731C632.038 174.483 634.365 177.92 637.396 180.946C637.934 181.483 638.872 181.48 639.405 180.949L641.891 178.476C643.785 180.178 645.909 181.592 648.222 182.693L646.936 185.465C646.771 185.814 646.76 186.222 646.899 186.582C647.039 186.945 647.326 187.236 647.684 187.381C650.655 188.616 653.998 189.242 658.195 189.357C658.27 189.368 658.348 189.374 658.429 189.374H659.715C660.499 189.374 661.138 188.734 661.138 187.949C661.138 187.211 660.575 186.599 659.852 186.529V185.235C662.72 185.079 665.466 184.562 667.868 183.727L669.568 187.077C669.897 187.725 670.709 188.027 671.381 187.747C675.397 186.076 678.996 183.71 681.798 180.902C682.345 180.354 682.353 179.457 681.812 178.901L679.431 176.445C681.164 174.522 682.632 172.343 683.72 170.083L686.971 171.443C687.32 171.589 687.713 171.589 688.062 171.443C688.413 171.298 688.687 171.024 688.832 170.672C690.52 166.598 691.374 162.51 691.371 158.523C691.371 157.741 690.735 157.101 689.954 157.098Z" fill="#333333"/>
<path d="M659.716 176.638C649.782 176.638 641.701 168.546 641.701 158.601C641.701 148.657 649.782 140.565 659.716 140.565C669.646 140.565 677.724 148.657 677.724 158.601C677.724 168.546 669.646 176.638 659.716 176.638ZM659.716 139.313C649.093 139.313 640.454 147.966 640.454 158.601C640.454 169.236 649.093 177.887 659.716 177.887C670.335 177.887 678.974 169.236 678.974 158.601C678.974 147.966 670.335 139.313 659.716 139.313Z" fill="#333333"/>
<path d="M730.136 110.267C719.516 110.267 710.877 101.616 710.877 90.9817C710.877 80.347 719.516 71.6934 730.136 71.6934C740.759 71.6934 749.395 80.347 749.395 90.9817C749.395 101.616 740.759 110.267 730.136 110.267ZM760.375 90.7274L756.144 90.7107C755.81 90.7079 755.539 90.4424 755.525 90.1071C755.43 87.2766 754.875 84.5076 753.868 81.881C753.745 81.5653 753.895 81.2104 754.211 81.0791L757.961 79.5032C758.053 79.4668 758.095 79.3635 758.053 79.274C756.516 75.5941 754.294 72.2997 751.46 69.4804C751.373 69.3938 751.295 69.3938 751.208 69.4804L748.346 72.3696C748.103 72.6099 747.718 72.6155 747.475 72.3864C745.402 70.4472 743.038 68.8824 740.452 67.7284C740.153 67.5971 740.003 67.2534 740.117 66.9461L741.724 62.4642C741.76 62.3748 741.716 62.277 741.629 62.2406C737.988 60.7402 734.096 59.2732 730.086 59.2732C729.988 59.2732 729.907 59.3542 729.907 59.4492L729.893 61.6958L729.924 64.6492C729.93 64.9873 729.659 65.2668 729.324 65.2779C726.645 65.3785 723.866 65.9821 721.073 67.0718C720.758 67.1947 720.401 67.0439 720.272 66.7337L718.701 63.037C718.657 62.9224 718.551 62.9112 718.473 62.942C714.842 64.462 711.55 66.6918 708.684 69.5754C708.617 69.6425 708.617 69.7542 708.687 69.8241L711.572 72.7105C711.809 72.9508 711.818 73.3336 711.589 73.5795C709.644 75.6612 708.07 78.0418 706.915 80.6544C706.781 80.9534 706.441 81.1014 706.131 80.9897L701.572 79.3411C701.502 79.316 701.393 79.3271 701.351 79.4389C699.912 82.9372 698.279 86.9022 698.279 91.0348C698.279 91.0795 698.299 91.1242 698.33 91.1577C698.374 91.1997 698.441 91.2108 698.48 91.2108L703.545 91.1801C703.547 91.1801 703.547 91.1801 703.55 91.1801C703.882 91.1801 704.158 91.4428 704.172 91.7781C704.278 94.3487 704.89 96.9725 706.098 100.035C706.223 100.348 706.075 100.706 705.763 100.84L702.144 102.402C702.057 102.438 702.016 102.541 702.055 102.631C703.55 106.23 705.788 109.53 708.701 112.438C708.785 112.525 708.863 112.525 708.947 112.441L711.857 109.549C711.98 109.429 712.139 109.368 712.298 109.368C712.451 109.368 712.605 109.423 712.725 109.538C714.778 111.469 717.136 113.036 719.728 114.199C719.879 114.266 720.002 114.394 720.058 114.551C720.122 114.707 720.116 114.88 720.044 115.034L718.487 118.37C718.473 118.415 718.464 118.463 718.487 118.51C718.501 118.552 718.537 118.588 718.579 118.605C721.422 119.784 724.636 120.382 728.694 120.486C728.738 120.488 728.772 120.491 728.808 120.5L730.136 120.505C730.237 120.505 730.315 120.424 730.315 120.329C730.315 120.231 730.237 120.153 730.136 120.153L729.645 120.15C729.302 120.148 729.031 119.868 729.031 119.524V117.018C729.031 116.68 729.293 116.403 729.631 116.392C732.795 116.278 735.817 115.708 738.381 114.746C738.674 114.635 739.009 114.763 739.152 115.048L741.102 118.89C741.152 118.994 741.258 119.002 741.322 118.971C745.187 117.364 748.653 115.093 751.337 112.399C751.404 112.329 751.409 112.22 751.337 112.151L748.546 109.273C748.318 109.032 748.309 108.649 748.538 108.406C750.502 106.327 752.132 103.905 753.259 101.398C753.402 101.088 753.759 100.949 754.074 101.08L757.874 102.667C757.916 102.687 757.967 102.687 758.011 102.667C758.053 102.65 758.089 102.617 758.103 102.572C759.724 98.6518 760.545 94.7259 760.545 90.9035C760.545 90.8057 760.467 90.7274 760.375 90.7274Z" fill="#8DCC93"/>
<path d="M758.103 102.572C758.089 102.617 758.053 102.65 758.011 102.667C757.967 102.687 757.916 102.687 757.875 102.667L754.074 101.08C753.759 100.949 753.402 101.088 753.259 101.398C752.132 103.905 750.503 106.327 748.538 108.406C748.309 108.649 748.318 109.032 748.547 109.272L751.337 112.151C751.41 112.22 751.404 112.329 751.337 112.399C748.653 115.093 745.187 117.364 741.323 118.971C741.258 119.002 741.152 118.993 741.102 118.89L739.152 115.048C739.009 114.763 738.675 114.635 738.382 114.746C735.817 115.708 732.795 116.278 729.631 116.392C729.294 116.403 729.031 116.68 729.031 117.018V119.524C729.031 119.868 729.302 120.147 729.645 120.15L730.136 120.153C730.237 120.153 730.315 120.231 730.315 120.329C730.315 120.424 730.237 120.505 730.136 120.505L728.808 120.5C728.772 120.491 728.738 120.488 728.694 120.486C724.637 120.382 721.422 119.784 718.579 118.605C718.537 118.588 718.501 118.552 718.487 118.51C718.464 118.463 718.473 118.415 718.487 118.37L720.044 115.034C720.116 114.88 720.122 114.707 720.058 114.551C720.002 114.394 719.879 114.266 719.728 114.199C717.136 113.036 714.779 111.469 712.725 109.538C712.605 109.423 712.451 109.368 712.298 109.368C712.139 109.368 711.98 109.429 711.857 109.549L708.947 112.441C708.863 112.525 708.785 112.525 708.701 112.438C705.788 109.53 703.55 106.23 702.055 102.631C702.016 102.541 702.058 102.438 702.144 102.402L705.763 100.84C706.076 100.706 706.223 100.348 706.098 100.035C704.89 96.9725 704.279 94.3487 704.173 91.7781C704.159 91.4427 703.882 91.1801 703.55 91.1801C703.548 91.1801 703.548 91.1801 703.545 91.1801L698.48 91.2108C698.441 91.2108 698.374 91.1997 698.33 91.1577C698.299 91.1242 698.279 91.0795 698.279 91.0348C698.279 86.9022 699.912 82.9372 701.352 79.4389C701.393 79.3271 701.502 79.316 701.572 79.3411L706.131 80.9897C706.441 81.1014 706.782 80.9534 706.915 80.6544C708.071 78.0418 709.644 75.6611 711.589 73.5795C711.818 73.3336 711.81 72.9508 711.572 72.7105L708.687 69.8241C708.618 69.7542 708.618 69.6425 708.685 69.5754C711.55 66.6918 714.843 64.462 718.473 62.942C718.551 62.9112 718.657 62.9224 718.702 63.037L720.273 66.7337C720.401 67.0439 720.758 67.1947 721.073 67.0718C723.866 65.9821 726.646 65.3785 729.324 65.2779C729.659 65.2667 729.93 64.9873 729.924 64.6492L729.894 61.6958L729.907 59.4492C729.907 59.3542 729.988 59.2732 730.086 59.2732C734.096 59.2732 737.988 60.7402 741.63 62.2406C741.716 62.277 741.761 62.3748 741.724 62.4642L740.117 66.9461C740.003 67.2534 740.153 67.5971 740.452 67.7284C743.039 68.8824 745.402 70.4472 747.475 72.3864C747.718 72.6155 748.103 72.6099 748.346 72.3696L751.209 69.4804C751.295 69.3938 751.373 69.3938 751.46 69.4804C754.295 72.2997 756.516 75.5941 758.053 79.274C758.095 79.3635 758.053 79.4668 757.961 79.5032L754.211 81.0791C753.896 81.2104 753.745 81.5653 753.868 81.881C754.875 84.5076 755.43 87.2766 755.525 90.1071C755.539 90.4424 755.81 90.7079 756.145 90.7107L760.375 90.7274C760.467 90.7274 760.545 90.8057 760.545 90.9035C760.545 94.7259 759.725 98.6518 758.103 102.572ZM760.375 89.4784L756.745 89.4617C756.602 86.905 756.094 84.4014 755.246 82.0012L758.447 80.6572C759.167 80.3526 759.51 79.5143 759.203 78.7906C757.604 74.9598 755.296 71.5257 752.339 68.5918C751.795 68.0554 750.851 68.0609 750.324 68.6002L747.88 71.0619C745.96 69.3463 743.817 67.9268 741.487 66.8287L742.902 62.8861C743.159 62.1652 742.81 61.3744 742.101 61.0838C738.345 59.5359 734.325 58.0242 730.086 58.0242C729.302 58.0242 728.666 58.6613 728.657 59.4437L728.643 61.6986L728.674 64.0597C726.224 64.2161 723.707 64.7638 721.188 65.6915L719.851 62.548C719.558 61.8439 718.693 61.4946 717.993 61.788C714.212 63.3723 710.783 65.6943 707.8 68.6924C707.25 69.2485 707.25 70.151 707.806 70.707L710.269 73.1743C708.545 75.1023 707.116 77.265 706.014 79.6177L701.996 78.1647C701.293 77.9133 700.478 78.2737 700.196 78.9639C698.712 82.5684 697.032 86.6535 697.032 91.0348C697.032 91.412 697.186 91.7808 697.451 92.0435C697.705 92.3006 698.059 92.4487 698.464 92.4598L702.959 92.4347C703.123 94.793 703.69 97.2044 704.719 99.9287L701.65 101.253C700.939 101.561 700.604 102.393 700.9 103.111C702.462 106.864 704.789 110.301 707.82 113.327C708.358 113.863 709.293 113.861 709.829 113.327L712.315 110.857C714.209 112.556 716.335 113.972 718.643 115.073L717.36 117.842C717.195 118.194 717.181 118.602 717.323 118.963C717.466 119.323 717.75 119.617 718.107 119.762C721.079 120.994 724.422 121.623 728.616 121.735C728.694 121.749 728.772 121.754 728.853 121.754H730.136C730.923 121.754 731.559 121.114 731.559 120.329C731.559 119.589 730.996 118.98 730.273 118.91V117.616C733.144 117.459 735.887 116.943 738.287 116.107L739.989 119.455C740.324 120.106 741.13 120.407 741.808 120.128C745.818 118.457 749.423 116.09 752.224 113.282C752.766 112.735 752.774 111.835 752.238 111.279L749.853 108.825C751.588 106.903 753.053 104.724 754.147 102.463L757.395 103.821C757.746 103.966 758.14 103.969 758.48 103.824C758.837 103.679 759.111 103.405 759.261 103.05C760.947 98.9787 761.795 94.8908 761.795 90.9035C761.795 90.1183 761.159 89.4812 760.375 89.4784Z" fill="#333333"/>
<path d="M730.137 109.018C720.209 109.018 712.125 100.926 712.125 90.9817C712.125 81.0344 720.209 72.9452 730.137 72.9452C740.067 72.9452 748.153 81.0344 748.153 90.9817C748.153 100.926 740.067 109.018 730.137 109.018ZM730.137 71.6934C719.517 71.6934 710.878 80.347 710.878 90.9817C710.878 101.616 719.517 110.267 730.137 110.267C740.759 110.267 749.395 101.616 749.395 90.9817C749.395 80.347 740.759 71.6934 730.137 71.6934Z" fill="#333333"/>
<path d="M711.02 282.767L779.226 225.665L689.604 279.771L711.02 282.767Z" fill="#E67E73"/>
<path d="M711.907 283.653L715.35 297.671L717.122 295.642L779.218 227.299L711.907 283.653Z" fill="#97AEBC"/>
<path d="M783.71 224.572L729.531 291.719L753.74 299.431L783.71 224.572Z" fill="#E67E73"/>
<path d="M717.823 296.841L728.075 291.543L771.804 237.344L717.823 296.841Z" fill="#97AEBC"/>
<path d="M753.74 299.431L729.531 291.719L783.71 224.572L753.74 299.431ZM728.075 291.543L717.823 296.841L771.804 237.344L728.075 291.543ZM779.218 227.299L717.123 295.642L715.351 297.671L711.908 283.653L779.218 227.299ZM779.226 225.665L711.02 282.767L689.605 279.771L779.226 225.665ZM786.453 220.909C786.453 220.887 786.448 220.864 786.448 220.839C786.439 220.817 786.439 220.792 786.434 220.769C786.434 220.755 786.425 220.738 786.42 220.724C786.42 220.711 786.406 220.697 786.406 220.685C786.389 220.663 786.375 220.643 786.369 220.621C786.355 220.607 786.355 220.593 786.347 220.579C786.339 220.574 786.339 220.571 786.333 220.568C786.325 220.554 786.311 220.543 786.305 220.532C786.297 220.523 786.297 220.515 786.291 220.509C786.283 220.501 786.269 220.498 786.261 220.49C786.255 220.484 786.255 220.473 786.247 220.467C786.233 220.459 786.219 220.456 786.21 220.448C786.196 220.434 786.182 220.42 786.16 220.412C786.16 220.409 786.16 220.406 786.155 220.403C786.146 220.398 786.132 220.395 786.127 220.389C786.104 220.381 786.082 220.372 786.062 220.364C786.04 220.356 786.018 220.35 785.998 220.342C785.982 220.339 785.968 220.333 785.954 220.33C785.94 220.325 785.917 220.328 785.903 220.325C785.884 220.322 785.862 220.322 785.834 220.322C785.811 220.322 785.789 220.322 785.769 220.325C785.756 220.328 785.747 220.325 785.733 220.328C785.719 220.33 785.697 220.339 785.683 220.342C785.661 220.35 785.633 220.358 785.61 220.367C785.591 220.372 785.569 220.381 785.555 220.392C785.541 220.398 785.527 220.4 785.518 220.406L687.453 279.609C687.225 279.746 687.11 280.012 687.163 280.272C687.216 280.531 687.425 280.727 687.688 280.766L710.702 283.985L714.43 299.138C714.43 299.146 714.438 299.152 714.438 299.157C714.444 299.177 714.452 299.191 714.458 299.211C714.472 299.255 714.494 299.3 714.522 299.342C714.53 299.35 714.53 299.361 714.536 299.37C714.544 299.375 714.55 299.378 714.558 299.384C714.617 299.451 714.681 299.504 714.751 299.543C714.765 299.549 714.779 299.551 714.787 299.557C714.823 299.571 714.851 299.588 714.888 299.596C714.938 299.607 714.988 299.613 715.038 299.613C715.116 299.613 715.195 299.593 715.264 299.563C715.281 299.557 715.295 299.557 715.301 299.551C715.309 299.549 715.314 299.549 715.323 299.543L728.529 292.711L753.91 300.798C753.974 300.817 754.038 300.828 754.102 300.828C754.345 300.828 754.582 300.678 754.683 300.434L786.42 221.174C786.42 221.172 786.42 221.169 786.42 221.166C786.425 221.158 786.425 221.149 786.425 221.138C786.434 221.116 786.434 221.093 786.439 221.068C786.448 221.04 786.453 221.015 786.453 220.987C786.453 220.973 786.461 220.959 786.461 220.945C786.461 220.931 786.461 220.92 786.453 220.909Z" fill="#333333"/>
<path d="M659.715 245.232C660.215 245.232 660.617 244.827 660.617 244.327V233.757H671.175C671.675 233.757 672.076 233.351 672.076 232.851C672.076 232.351 671.675 231.946 671.175 231.946H660.617V221.376C660.617 220.875 660.215 220.47 659.715 220.47C659.213 220.47 658.811 220.875 658.811 221.376V231.946H648.256C647.753 231.946 647.352 232.351 647.352 232.851C647.352 233.351 647.753 233.757 648.256 233.757H658.811V244.327C658.811 244.827 659.213 245.232 659.715 245.232Z" fill="#333333"/>
<path d="M745.559 199.396C746.061 199.396 746.468 198.988 746.468 198.491V187.921H757.024C757.523 187.921 757.925 187.513 757.925 187.015C757.925 186.512 757.523 186.11 757.024 186.11H746.468V175.54C746.468 175.037 746.061 174.634 745.559 174.634C745.059 174.634 744.66 175.037 744.66 175.54V186.11H734.102C733.602 186.11 733.203 186.512 733.203 187.015C733.203 187.513 733.602 187.921 734.102 187.921H744.66V198.491C744.66 198.988 745.059 199.396 745.559 199.396Z" fill="#333333"/>
<path d="M327.14 374.142C327.64 374.142 328.044 373.737 328.044 373.237V362.667H338.6C339.099 362.667 339.504 362.262 339.504 361.761C339.504 361.261 339.099 360.856 338.6 360.856H328.044V350.286C328.044 349.785 327.64 349.38 327.14 349.38C326.641 349.38 326.236 349.785 326.236 350.286V360.856H315.68C315.181 360.856 314.776 361.261 314.776 361.761C314.776 362.262 315.181 362.667 315.68 362.667H326.236V373.237C326.236 373.737 326.641 374.142 327.14 374.142Z" fill="#333333"/>
<path d="M183.906 252.916C184.405 252.916 184.81 252.511 184.81 252.011V241.441H195.366C195.865 241.441 196.27 241.035 196.27 240.535C196.27 240.035 195.865 239.63 195.366 239.63H184.81V229.06C184.81 228.559 184.405 228.154 183.906 228.154C183.406 228.154 183.002 228.559 183.002 229.06V239.63H172.446C171.947 239.63 171.542 240.035 171.542 240.535C171.542 241.035 171.947 241.441 172.446 241.441H183.002V252.011C183.002 252.511 183.406 252.916 183.906 252.916Z" fill="#333333"/>
<path d="M421.999 190.268C422.498 190.268 422.903 189.863 422.903 189.362V178.792H433.458C433.958 178.792 434.362 178.387 434.362 177.887C434.362 177.387 433.958 176.981 433.458 176.981H422.903V166.411C422.903 165.911 422.498 165.506 421.999 165.506C421.499 165.506 421.095 165.911 421.095 166.411V176.981H410.539C410.039 176.981 409.635 177.387 409.635 177.887C409.635 178.387 410.039 178.792 410.539 178.792H421.095V189.362C421.095 189.863 421.499 190.268 421.999 190.268Z" fill="#333333"/>
<path d="M821.028 220.554C823.24 220.554 825.043 222.356 825.043 224.572C825.043 226.788 823.24 228.587 821.028 228.587C818.812 228.587 817.012 226.788 817.012 224.572C817.012 222.356 818.812 220.554 821.028 220.554ZM821.028 230.884C824.499 230.884 827.328 228.054 827.328 224.572C827.328 221.091 824.499 218.257 821.028 218.257C817.548 218.257 814.719 221.091 814.719 224.572C814.719 228.054 817.548 230.884 821.028 230.884Z" fill="#333333"/>
<path d="M725.265 138.818C727.475 138.818 729.275 140.621 729.275 142.834C729.275 145.049 727.475 146.852 725.265 146.852C723.052 146.852 721.253 145.049 721.253 142.834C721.253 140.621 723.052 138.818 725.265 138.818ZM725.265 149.148C728.739 149.148 731.566 146.315 731.566 142.834C731.566 139.352 728.739 136.521 725.265 136.521C721.788 136.521 718.959 139.352 718.959 142.834C718.959 146.315 721.788 149.148 725.265 149.148Z" fill="#333333"/>
<path d="M668.047 317.161C670.26 317.161 672.063 318.963 672.063 321.179C672.063 323.392 670.26 325.194 668.047 325.194C665.838 325.194 664.035 323.392 664.035 321.179C664.035 318.963 665.838 317.161 668.047 317.161ZM668.047 327.491C671.524 327.491 674.353 324.657 674.353 321.179C674.353 317.697 671.524 314.864 668.047 314.864C664.571 314.864 661.744 317.697 661.744 321.179C661.744 324.657 664.571 327.491 668.047 327.491Z" fill="#333333"/>
<path d="M378.711 303.751C380.923 303.751 382.723 305.553 382.723 307.769C382.723 309.982 380.923 311.784 378.711 311.784C376.498 311.784 374.698 309.982 374.698 307.769C374.698 305.553 376.498 303.751 378.711 303.751ZM378.711 314.081C382.187 314.081 385.017 311.248 385.017 307.769C385.017 304.288 382.187 301.454 378.711 301.454C375.234 301.454 372.407 304.288 372.407 307.769C372.407 311.248 375.234 314.081 378.711 314.081Z" fill="#333333"/>
<path d="M269.239 312.807C271.452 312.807 273.254 314.609 273.254 316.825C273.254 319.041 271.452 320.84 269.239 320.84C267.029 320.84 265.229 319.041 265.229 316.825C265.229 314.609 267.029 312.807 269.239 312.807ZM269.239 323.137C272.716 323.137 275.545 320.307 275.545 316.825C275.545 313.344 272.716 310.51 269.239 310.51C265.765 310.51 262.936 313.344 262.936 316.825C262.936 320.307 265.765 323.137 269.239 323.137Z" fill="#333333"/>
<path d="M418.905 226.145C421.117 226.145 422.917 227.947 422.917 230.163C422.917 232.376 421.117 234.179 418.905 234.179C416.692 234.179 414.892 232.376 414.892 230.163C414.892 227.947 416.692 226.145 418.905 226.145ZM418.905 236.475C422.381 236.475 425.211 233.645 425.211 230.163C425.211 226.682 422.381 223.848 418.905 223.848C415.428 223.848 412.599 226.682 412.599 230.163C412.599 233.645 415.428 236.475 418.905 236.475Z" fill="#333333"/>
<path d="M362.88 155.296C365.093 155.296 366.896 157.098 366.896 159.314C366.896 161.527 365.093 163.329 362.88 163.329C360.671 163.329 358.868 161.527 358.868 159.314C358.868 157.098 360.671 155.296 362.88 155.296ZM362.88 165.626C366.357 165.626 369.186 162.795 369.186 159.314C369.186 155.832 366.357 152.999 362.88 152.999C359.404 152.999 356.577 155.832 356.577 159.314C356.577 162.795 359.404 165.626 362.88 165.626Z" fill="#333333"/>
<path d="M725.265 373.089C727.475 373.089 729.275 374.891 729.275 377.107C729.275 379.32 727.475 381.122 725.265 381.122C723.052 381.122 721.253 379.32 721.253 377.107C721.253 374.891 723.052 373.089 725.265 373.089ZM725.265 383.419C728.739 383.419 731.566 380.589 731.566 377.107C731.566 373.626 728.739 370.792 725.265 370.792C721.788 370.792 718.959 373.626 718.959 377.107C718.959 380.589 721.788 383.419 725.265 383.419Z" fill="#333333"/>
</svg>
