<svg width="116" height="109" viewBox="0 0 116 109" fill="none" xmlns="http://www.w3.org/2000/svg">
<rect width="116" height="109" rx="30" fill="#0E5BA7"/>
<path d="M91.1196 62.3087C91.6964 59.6904 92 57.0413 92 54.3922C92 35.4018 76.8518 20 58.1366 20C55.617 20 53.0821 20.308 50.6536 20.8471C69.3839 28.0859 84.1223 43.2567 91.1196 62.3087ZM31.483 33.1685C33.5625 30.4732 35.9911 28.1321 38.7384 26.1915C61.4455 33.0145 79.1589 51.1578 85.7464 74.2451C83.8491 77.0328 81.4964 79.7281 78.8857 81.792C72.3438 58.4891 54.4179 39.9453 31.483 33.1685ZM29.0848 72.0888C26.7777 68.223 25.2295 63.8181 24.6071 59.3362C36.6589 65.9435 46.6161 76.3705 53.0821 88.6458C48.5286 87.9681 44.142 86.2893 40.2411 83.825C34.9286 85.8426 29.4795 87.5676 24 89C25.4116 83.3783 27.0964 77.5257 29.0848 72.0888ZM24.5768 49.6792C24.9714 46.6759 25.7759 43.7187 26.975 40.931C47.9062 47.985 64.375 65.0502 71.1902 86.3817C68.4429 87.5522 65.5741 88.3069 62.5991 88.7228C55.5714 71.1493 41.8348 56.8719 24.5768 49.6792Z" fill="white"/>
</svg>
