<svg width="122" height="113" viewBox="0 0 122 113" fill="none" xmlns="http://www.w3.org/2000/svg">
<rect x="0.5" width="121" height="113" rx="30" fill="#0E5BA7"/>
<path d="M51.875 24.5625C51.875 27.0861 53.9139 29.125 56.4375 29.125C74.0744 29.125 88.375 43.4256 88.375 61.0625C88.375 63.5861 90.4139 65.625 92.9375 65.625C95.4611 65.625 97.5 63.5861 97.5 61.0625C97.5 38.3783 79.1217 20 56.4375 20C53.9139 20 51.875 22.0389 51.875 24.5625ZM51.875 38.25C51.875 40.7736 53.9139 42.8125 56.4375 42.8125C66.5178 42.8125 74.6875 50.9822 74.6875 61.0625C74.6875 63.5861 76.7264 65.625 79.25 65.625C81.7736 65.625 83.8125 63.5861 83.8125 61.0625C83.8125 45.9492 71.5508 33.6875 56.4375 33.6875C53.9139 33.6875 51.875 35.7264 51.875 38.25ZM38.1875 40.5312C38.1875 36.7529 35.1221 33.6875 31.3438 33.6875C27.5654 33.6875 24.5 36.7529 24.5 40.5312V72.4688C24.5 83.8037 33.6963 93 45.0312 93C56.3662 93 65.5625 83.8037 65.5625 72.4688C65.5625 61.1338 56.3662 51.9375 45.0312 51.9375H42.75V65.625H45.0312C48.8096 65.625 51.875 68.6904 51.875 72.4688C51.875 76.2471 48.8096 79.3125 45.0312 79.3125C41.2529 79.3125 38.1875 76.2471 38.1875 72.4688V40.5312Z" fill="white"/>
</svg>
