<svg width="120" height="116" viewBox="0 0 120 116" fill="none" xmlns="http://www.w3.org/2000/svg">
<rect x="0.5" width="119" height="116" rx="30" fill="#0E5BA7"/>
<path d="M65.4615 66.1429C65.4615 65.423 65.7492 64.7326 66.2614 64.2236C66.7735 63.7145 67.4681 63.4286 68.1923 63.4286H79.1154C79.8396 63.4286 80.5342 63.7145 81.0463 64.2236C81.5584 64.7326 81.8462 65.423 81.8462 66.1429V77C81.8462 77.7199 81.5584 78.4103 81.0463 78.9193C80.5342 79.4283 79.8396 79.7143 79.1154 79.7143H68.1923C67.4681 79.7143 66.7735 79.4283 66.2614 78.9193C65.7492 78.4103 65.4615 77.7199 65.4615 77V66.1429ZM70.9231 74.2857H76.3846V68.8571H70.9231V74.2857ZM39.1806 20.5971L25.5268 31.4543C24.6202 32.1709 24.5 33.4086 24.5 34.4943V44.4286C24.5 47.4849 25.5158 50.3023 27.2308 52.5714V93.2857C27.2308 94.0056 27.5185 94.696 28.0306 95.205C28.5427 95.714 29.2373 96 29.9615 96H90.0385C90.7627 96 91.4573 95.714 91.9694 95.205C92.4815 94.696 92.7692 94.0056 92.7692 93.2857V52.5714C94.4842 50.3023 95.5 47.4849 95.5 44.4286V34.4726C95.5 33.3869 95.3798 32.1709 94.4732 31.4543L80.8194 20.5971C80.336 20.2117 79.7351 20.0011 79.1154 20H40.8846C40.2649 20.0011 39.664 20.2117 39.1806 20.5971ZM46.3462 36.2857V44.4286C46.3462 46.5882 45.483 48.6594 43.9467 50.1864C42.4103 51.7135 40.3266 52.5714 38.1538 52.5714C35.9811 52.5714 33.8974 51.7135 32.361 50.1864C30.8247 48.6594 29.9615 46.5882 29.9615 44.4286V36.2857H46.3462ZM68.1923 36.2857V44.4286C68.1923 46.5882 67.3292 48.6594 65.7928 50.1864C64.2565 51.7135 62.1727 52.5714 60 52.5714C57.8273 52.5714 55.7435 51.7135 54.2072 50.1864C52.6708 48.6594 51.8077 46.5882 51.8077 44.4286V36.2857H68.1923ZM90.0385 36.2857V44.4286C90.0385 46.5882 89.1753 48.6594 87.639 50.1864C86.1026 51.7135 84.0189 52.5714 81.8462 52.5714C79.6734 52.5714 77.5897 51.7135 76.0533 50.1864C74.517 48.6594 73.6538 46.5882 73.6538 44.4286V36.2857H90.0385ZM49.2353 25.4286L47.1872 30.8571H35.0135L41.8404 25.4286H49.2408H49.2353ZM53.0202 30.8571L55.0682 25.4286H64.8608L66.6795 30.8571H53.0202ZM70.6172 25.4286H78.1542L84.9811 30.8571H72.4359L70.6172 25.4286ZM87.3077 56.8709V90.5714H60V66.1429C60 65.423 59.7123 64.7326 59.2002 64.2236C58.6881 63.7145 57.9935 63.4286 57.2692 63.4286H40.8846C40.1604 63.4286 39.4658 63.7145 38.9537 64.2236C38.4416 64.7326 38.1538 65.423 38.1538 66.1429V90.5714H32.6923V56.8709C35.5108 58.0971 38.6637 58.3397 41.6384 57.5591C44.6131 56.7785 47.2347 55.0207 49.0769 52.5714C51.5674 55.8666 55.5325 58 60 58C64.4675 58 68.4326 55.8666 70.9231 52.5714C72.7653 55.0207 75.3869 56.7785 78.3616 57.5591C81.3363 58.3397 84.4892 58.0971 87.3077 56.8709ZM54.5385 90.5714H43.6154V68.8571H54.5385V90.5714Z" fill="white"/>
</svg>
